<svg width="257" height="108" viewBox="0 0 257 108" fill="none" xmlns="http://www.w3.org/2000/svg">
<path fill-rule="evenodd" clip-rule="evenodd" d="M69.7249 12.267C77.8188 11.5855 78.8164 19.3983 77.5728 26.649C76.54 32.6983 73.1255 38.6422 67.1394 39.127C59.0175 39.7804 57.9495 32.1011 59.2985 24.7872C60.4016 18.766 63.6897 12.7729 69.7249 12.267V12.267ZM176.329 12.267C184.423 11.5855 185.42 19.3983 184.177 26.649C183.144 32.6983 179.729 38.6422 173.743 39.127C165.621 39.7804 164.553 32.1011 165.902 24.7872C167.005 18.766 170.294 12.7729 176.329 12.267ZM176.237 0.0419792C162.256 0.744568 152.848 11.3818 151.029 24.8855C148.717 42.0217 157.57 52.16 173.996 51.3521C187.282 50.6986 196.43 40.8905 198.798 27.9418C201.91 10.897 194.16 -0.857335 176.244 0.0490051L176.237 0.0419792ZM123.037 12.267C131.138 11.5855 132.129 19.3983 130.885 26.649C129.852 32.6983 126.438 38.6422 120.452 39.127C112.337 39.7804 111.262 32.1011 112.611 24.7872C113.714 18.766 117.002 12.7729 123.037 12.267V12.267ZM122.946 0.0419792C108.965 0.744568 99.5568 11.3818 97.7371 24.8855C95.4256 42.0217 104.278 52.16 120.705 51.3521C133.991 50.6986 143.138 40.8905 145.506 27.9418C148.612 10.897 140.869 -0.857335 122.953 0.0490051L122.946 0.0419792ZM0 50.1858L35.9726 50.2139C36.6822 46.6096 37.1951 43.9819 37.9047 40.3776C38.0873 39.4502 37.8414 37.6375 35.8672 37.6375H17.4172L24.696 1.16612L9.96271 1.1591L0.00702589 50.1787L0 50.1858ZM200.034 50.1858L214.592 50.2209L217.297 37.1035C217.444 36.3729 217.472 36.1832 218.33 35.4244C219.187 34.6656 221.597 32.5297 222.77 31.4969L231.447 50.2139L248.007 50.2209L234.215 21.3445L257 1.17315H239.808L221.337 17.5294C222.271 12.9907 223.205 8.45197 224.14 3.91324C224.47 2.29729 223.479 1.17315 222.236 1.17315H209.969C206.66 17.5154 203.35 33.8506 200.034 50.1928V50.1858ZM69.6336 0.0419792C55.6521 0.744568 46.2444 11.3818 44.4247 24.8855C42.1132 42.0217 50.9658 52.16 67.3923 51.3521C80.6783 50.6986 89.826 40.8905 92.1937 27.9418C95.3062 10.897 87.5566 -0.857335 69.6406 0.0490051L69.6336 0.0419792Z" fill="black"/>
<path fill-rule="evenodd" clip-rule="evenodd" d="M183.941 69.1348C183.028 73.1817 186.998 75.7321 190.012 77.4956C197.867 82.0133 183.442 86.292 182.62 81.5987C182.445 80.587 183.948 79.9828 183.295 79.6526C181.665 78.8235 176.684 84.121 183.569 87.107C185.866 88.1047 188.859 87.6902 191.67 86.6574C196.18 85.0063 200.368 78.9851 195.239 75.6056C192.534 73.8281 187.489 72.0365 189.021 68.2285C189.885 66.3455 190.918 64.7296 192.836 63.3384C193.967 62.5164 198.295 60.4719 199.588 61.849C199.574 62.7553 196.644 67.2097 196.679 69.0224C196.707 70.5681 197.754 72.4089 198.646 71.9943C199.159 71.7625 199.23 70.8842 199.49 70.3081C200.41 68.2074 205.426 61.9965 204.604 60.7599C204.288 60.2822 203.916 59.6639 203.536 59.2915C201.731 57.4788 201.028 59.425 200.586 60.4157C199.764 58.3641 198.091 57.5702 195.977 57.7248C190.799 58.1112 184.974 64.5118 183.934 69.1348H183.941ZM175.559 91.0977C198.443 115.372 237.155 111.262 255.296 84.9641C255.718 84.3529 255.409 83.7276 254.776 84.4793C236.411 106.189 202.841 109.14 181.496 90.1773C180.969 89.7066 179.936 88.7581 179.424 88.2663C177.126 86.3623 173.36 88.7722 175.559 91.1048V91.0977ZM66.0047 83.2568C65.0562 83.9243 64.1147 83.7697 64.1358 82.1959C64.2271 79.0413 67.3818 73.7368 69.4122 71.4604C69.7916 71.081 70.8104 70.1044 71.5059 70.287C72.5036 70.554 71.246 73.9827 69.7284 77.1794C69.0399 78.6338 67.3466 82.3013 65.9976 83.2498L66.0047 83.2568ZM54.0396 80.8399C53.9272 81.1561 53.7586 82.0062 53.7656 82.7861C53.7937 85.3435 55.8312 84.2053 57.0467 83.1444C58.1568 82.1749 60.2294 79.505 61.0444 78.2474C62.4917 74.6853 66.363 69.0154 69.9392 67.6594C70.6558 67.3854 71.5903 67.4205 72.4053 67.7015C76.6208 69.1418 73.9931 76.1958 72.6722 78.9008C75.047 77.601 76.7683 74.622 76.8316 74.5026C77.1126 73.9967 77.3164 73.5049 77.5131 73.0201C78.0752 71.643 79.6138 68.1371 81.019 67.6734C81.7216 67.4416 84.9324 68.3128 83.2181 70.9053C82.1923 72.458 80.9277 74.7555 80.3375 76.3504C79.9511 77.3832 78.9323 80.1373 78.7145 81.9922C78.5318 83.5941 78.9604 84.107 80.2883 82.8985C83.1759 80.2779 85.8879 73.526 87.4055 69.6969C88.5156 66.7249 91.7054 68.65 90.4267 72.1068C88.5508 77.1654 84.1947 84.0929 80.4429 86.1585C79.108 86.8963 78.1243 86.9946 77.3866 86.7276C74.225 85.5894 74.773 81.9781 75.2929 79.7439C74.6184 80.2146 72.3842 81.4442 70.979 82.0835C69.7354 83.8611 68.2389 85.7791 66.3068 86.5941C63.2997 87.8658 60.2153 85.8775 60.2224 82.6948C59.0209 84.0789 58.0935 85.2943 55.9928 86.559C53.9272 87.7956 51.0044 86.8892 50.4072 84.4231C49.8662 84.8236 49.2269 85.2733 48.8123 85.5473C48.0535 86.0531 47.9341 83.84 48.1589 83.1093C48.3697 82.4208 48.5102 82.0835 48.8264 81.8657C49.1566 81.6409 49.5852 81.3388 50.084 80.9875C50.7234 75.7953 57.7914 61.0129 62.9133 57.6615C64.3185 56.7411 65.5901 56.7552 66.4403 57.3594C71.3514 60.8653 56.7446 77.9523 54.0466 80.854L54.0396 80.8399ZM55.1427 76.8563C56.0209 74.3269 62.288 62.0246 64.0093 60.24C64.6346 59.5796 65.0421 59.4391 65.2459 59.6498C65.7869 60.226 64.8384 62.0246 64.5573 62.5726C62.4707 66.5985 58.227 73.9054 55.1427 76.8563V76.8563ZM6.46027 62.1159C7.25419 61.4555 7.99894 61.0129 8.59614 60.9145C9.2636 60.8091 9.60786 61.1042 9.68515 61.6803C10.2964 66.2401 6.48837 76.0483 4.45086 81.0437L3.63586 82.758C2.9684 84.1772 3.45319 85.189 4.3806 86.3342C5.98251 88.3225 7.21906 88.5544 8.65234 86.2569L10.472 83.0882C10.7671 82.5261 11.006 81.9641 11.3011 81.395C11.6454 80.7135 15.7274 73.4908 15.8117 73.4557C15.3199 74.7204 13.177 79.3223 13.6196 82.8564C13.985 85.8213 16.7743 89.2429 19.8938 87.0508C25.5496 83.0742 32.1329 70.4346 33.4537 64.4415C33.8893 62.4672 33.8191 60.6546 32.7933 59.2705C31.9151 58.0901 28.9642 56.9519 29.1117 58.3641C29.3085 60.2962 29.8073 63.3665 25.5356 72.6407C23.2381 77.6221 19.95 83.854 18.1162 83.8681C15.2988 83.8892 21.9594 65.2425 23.1678 62.8958C23.8283 61.6101 24.5449 60.3314 22.8306 59.2002C22.0296 58.6733 21.0741 58.1182 20.3926 59.144C18.7696 61.5749 9.34088 81.4231 7.06449 83.8821C9.58679 78.4792 12.5587 70.0411 13.3527 64.3431C14.0904 59.3337 9.6711 57.2189 5.75768 58.5327C4.45086 58.9754 2.94732 60.1065 1.59835 61.5398C1.00818 63.479 4.83729 63.486 6.48134 62.123L6.46027 62.1159ZM33.8542 77.3832C35.2594 74.1162 37.6201 70.8491 38.9831 70.3784C40.6763 69.8023 39.489 72.7812 37.7747 75.0225C36.8472 76.238 35.8144 77.32 33.8542 77.3832V77.3832ZM31.5357 86.7698C34.8378 88.3225 37.7887 86.0953 40.044 83.559C40.6834 82.8353 40.9363 82.3645 41.0347 81.6479C41.1892 80.4816 41.0979 79.1748 39.9316 80.5448C38.147 82.6386 35.7582 84.9501 33.9526 84.1843C32.5966 83.6152 32.4771 81.8727 33.0041 79.8142C36.9597 79.6315 41.8848 76.3785 42.4047 72.177C42.8965 68.1582 38.8215 66.7882 35.8144 68.657C34.8449 69.2542 33.9315 70.1465 33.0041 71.1864C30.4677 74.0318 26.0765 84.2124 31.5357 86.7768V86.7698ZM93.7218 76.7157C95.1691 73.4698 97.579 70.2308 98.9491 69.7882C100.649 69.2402 99.4198 72.1981 97.6704 74.4112C96.7219 75.6127 95.675 76.6736 93.7148 76.7157H93.7218ZM91.2698 86.0742C94.5509 87.6691 97.5369 85.484 99.8203 82.9828C100.474 82.2662 100.734 81.8025 100.839 81.0858C101.015 79.9195 100.937 78.6127 99.75 79.9617C97.9373 82.0343 95.5134 84.3037 93.7218 83.5168C92.3728 82.9266 92.2815 81.1842 92.8366 79.1326C96.7921 79.0062 101.766 75.8234 102.343 71.629C102.898 67.6242 98.8367 66.191 95.8085 68.0177C94.8319 68.6008 93.9045 69.4791 92.963 70.5048C90.3845 73.3152 85.8458 83.4325 91.2698 86.0742V86.0742ZM235.61 59.5866C236.748 60.2681 236.916 62.0808 235.982 63.6335C235.048 65.1862 233.368 65.8959 232.23 65.2144C231.092 64.5328 230.923 62.7202 231.858 61.1674C232.792 59.6147 234.471 58.9051 235.61 59.5866ZM236.425 76.8773C237.317 74.355 243.654 62.0949 245.383 60.3173C246.472 59.2002 246.788 59.5093 246.753 60.2049C246.619 62.8958 238.35 75.3457 236.425 76.8773ZM112.537 91.8214C112.221 91.4209 111.638 90.0368 110.844 90.9291C110.31 91.5263 110.387 92.7137 110.879 93.2968C113.078 95.9245 117.041 95.9737 119.746 94.1259C124.931 90.5708 128.289 78.2685 131.528 72.2262C133.952 67.7085 130.088 66.212 128.872 68.3198C127.27 71.102 123.75 77.9031 122.957 78.8024C122.394 79.4418 120.954 81.1069 119.732 82.1819C118.186 83.5379 117.589 83.4887 118.263 81.3317C119.254 78.1701 122.914 72.4861 123.75 70.533C124.369 69.0856 121.221 66.3596 119.767 68.8327C118.095 71.6782 109.235 87.2405 116.837 87.1281C119.739 86.833 122.345 82.7931 123.125 81.662C122.542 83.1233 116.844 97.2454 112.537 91.8214V91.8214ZM141.196 73.0131C140.669 74.8328 139.685 77.2076 139.439 77.7556C138.512 79.8423 137.416 81.8517 136.46 82.9477C136.095 83.3692 135.645 83.847 134.795 83.9454C133.79 84.0648 133.509 83.3903 133.538 82.4559C133.636 79.6526 136.158 75.163 138.154 72.6056C139.636 70.7086 142.383 68.924 141.196 73.0061V73.0131ZM161.55 71.3901C163.552 67.7999 160.081 65.6921 158.571 68.2425C157.517 70.0201 155.381 74.3269 154.383 75.6127C153.301 77.0038 149.5 83.5941 147.849 83.3974C147.154 81.7463 151.714 73.4065 152.662 71.7133C154.664 68.1231 151.194 66.0153 149.683 68.5657C148.959 69.7882 147.386 72.3456 146.058 75.1841C145.517 76.0342 144.02 78.1631 142.095 79.2029C143.156 77.06 144.336 73.9546 144.111 71.3269C143.739 66.9708 139.931 67.0411 137.057 69.4018C135.118 70.9967 133.193 73.4417 131.9 75.5635C130.123 78.4792 127.804 84.9993 132.125 86.8752C133.172 87.3319 134.437 87.374 135.687 86.8541C137.627 86.0461 139.13 84.1421 140.388 82.3716C141.533 81.8517 143.24 80.9523 144.196 80.3832C143.641 82.8704 143.795 85.0976 145.411 86.3412C146.001 86.7909 146.535 86.8892 147.386 86.6574C148.84 86.2709 151.749 82.9969 152.564 81.4933C152.051 83.6854 152.81 87.1913 155.437 86.6855C158.156 86.1585 161.487 80.4043 163.622 76.5893C164.536 74.9593 165.456 73.3433 166.362 71.7063C166.559 71.3831 166.721 71.095 166.889 70.7437C167.451 69.5774 169.44 70.2027 169.475 71.2145C169.503 71.8819 169.011 72.8937 168.716 73.3363C167.845 74.622 166.243 77.067 165.189 79.491C164.522 81.0367 163.924 82.744 164.367 84.4302C165.126 87.2827 168.386 86.9033 170.318 85.0765C171.224 84.2194 171.962 83.1444 172.454 82.1678C173.22 80.6502 172.18 79.8914 171.147 81.0156C170.459 81.7603 169.833 82.4559 169.271 82.8353C168.386 83.4465 167.971 82.9828 168.302 82.0624C169.046 79.9968 171.667 76.0623 172.377 74.9031C173.824 72.5845 174.646 70.5962 171.66 69.3456C170.501 68.8608 169.096 68.4182 168.906 68.2285C168.92 67.6523 170.135 66.0856 169.854 64.6593C169.58 63.2612 165.491 64.5961 165.33 68.0528C165.266 69.4791 165.779 69.3526 164.887 70.7297C163.278 73.2028 157.032 85.4419 156.259 83.2147C155.774 81.8165 160.412 73.3995 161.529 71.4042L161.55 71.3901ZM246.542 77.4253C248.003 74.1864 250.42 70.9545 251.797 70.5119C253.498 69.9709 252.261 72.9218 250.505 75.1349C249.556 76.3363 248.502 77.3972 246.542 77.4253ZM233.031 75.3668C231.521 77.6361 229.567 80.9523 227.797 82.8774C226.076 84.7463 226.609 82.4208 227.01 81.409C228.204 78.4301 229.764 75.6759 231.415 72.4159C231.893 71.4744 232.61 70.4767 232.244 69.3877C231.682 67.7156 229.139 66.76 227.734 70.54C226.898 72.7812 224.558 76.6174 223.286 78.8095C222.949 79.3856 219.752 84.0508 219.007 83.6152C218.677 83.4255 218.762 83.025 218.888 82.6034C219.998 78.8024 223.181 75.0717 224.417 71.4744C224.762 70.4838 224.27 68.8608 223.371 68.2987C219.851 66.0575 215.284 73.9967 214.124 75.4159C215.157 73.519 216.471 70.8702 215.586 68.91C214.813 67.3643 213.085 67.5891 211.996 68.6079C210.907 69.6266 207.394 73.8421 204.569 77.6783C205.433 76.0693 207.394 72.2965 207.935 70.9686C208.469 69.6617 207.738 68.4111 206.628 67.8982C205.216 67.2378 205.068 67.8772 204.485 69.0505C202.483 73.0623 200.382 77.7204 198.85 81.95C198.682 82.4137 198.534 82.8564 198.408 83.2568C197.937 84.7955 197.824 85.1257 198.752 86.4255C199.412 87.3529 200.15 87.6059 201.162 86.1937C205.159 80.6292 206.473 76.8633 212.347 70.9334C212.473 72.2543 206.796 81.6409 205.862 84.1843C205.251 85.8353 207.752 87.8939 209.143 86.5239C209.565 86.1093 210.787 82.9969 211.321 82.0835C211.525 81.7392 218.909 70.7508 219.921 70.9264C219.998 71.2707 214.23 80.8891 214.792 84.1983C214.897 84.8166 215.382 85.8283 215.705 86.2147C218.207 89.1305 221.417 84.7463 222.591 83.1093C222.457 85.21 223.068 86.3553 224.08 86.6995C226.813 87.6199 229.961 83.5098 231.289 81.6479C231.204 82.5823 231.247 83.5027 231.514 84.3248C232.293 86.7066 235.027 87.8939 237.24 86.5871C239.347 85.3365 240.275 84.1281 241.49 82.744C241.504 82.6737 241.624 85.5754 244.076 86.7768C247.35 88.3857 250.343 86.2077 252.633 83.7135C253.287 83.0039 253.547 82.5332 253.659 81.8165C253.835 80.6502 253.765 79.3434 252.577 80.6924C250.757 82.758 248.326 85.0203 246.535 84.2334C245.186 83.6362 245.102 81.9008 245.664 79.8493C249.619 79.7369 254.601 76.5682 255.191 72.3737C255.753 68.369 251.699 66.9287 248.664 68.7413C247.687 69.3245 246.76 70.1957 245.811 71.2215C244.476 72.6688 242.727 75.7883 241.933 78.9148C240.956 80.2779 239.277 82.3645 238.322 83.1936C237.015 84.3248 234.97 85.2522 235.041 82.6456C235.062 81.9219 235.223 81.1631 235.329 80.868C238.961 76.9968 242.91 72.2964 245.727 67.4275C246.907 65.383 249.416 61.0621 248.551 58.6662C247.807 56.6076 245.952 56.6638 244.308 57.7248C239.931 60.5562 234.998 70.4697 233.038 75.3738L233.031 75.3668Z" fill="black"/>
</svg>
