
<svg xmlns="http://www.w3.org/2000/svg" xml:space="preserve" width="7627px" height="2845px" version="1.1" style="shape-rendering:geometricPrecision; text-rendering:geometricPrecision; image-rendering:optimizeQuality; fill-rule:evenodd; clip-rule:evenodd"
viewBox="0 0 676.84 252.43"
 xmlns:xlink="http://www.w3.org/1999/xlink"
 xmlns:xodm="http://www.corel.com/coreldraw/odm/2003" fill="#373435">
 <g id="Layer_x0020_1">
  <metadata id="CorelCorpID_0Corel-Layer"/>
  <g id="_2425949886064">
   <path class="fil0" d="M457.02 103.12c-4.9,0 -7.26,0.13 -11.77,-2.27 -2.26,-1.21 -3.92,-2.96 -5.31,-5.05 -6.99,-10.48 -4.05,-30.45 0.15,-41.41 1.7,-4.44 3.9,-8.4 6.76,-12.09 0.37,-0.48 0.64,-0.69 1.03,-1.19 3.58,-4.61 11.17,-8.61 17.46,-8.61l2.96 0c6.38,0 11.47,3.6 13.86,7.59 1.41,2.37 2.31,4.53 3.03,7.68 1.85,8.08 0.94,18.84 -0.96,26.37 -2.79,11.06 -8.34,22.76 -19.47,27.3 -1.92,0.78 -5.1,1.68 -7.74,1.68zm-60.27 -24.95c0,13.16 2.24,25.13 8.98,35.2 0.93,1.39 1.91,2.83 2.99,4.04l1.66 1.85c0.63,0.76 0.95,1.16 1.66,1.85l1.76 1.57c0.39,0.36 0.53,0.4 0.92,0.74l5.15 3.73c7.76,4.67 17.46,7.69 26.79,8.15 2.08,0.1 4.45,0.36 6.66,0.36 5.11,0 12.41,-0.71 17.05,-1.81 2.63,-0.62 4.92,-1.29 7.33,-2.09 10.35,-3.46 18.23,-9.22 25.77,-16.76 0.88,-0.87 1.47,-1.6 2.31,-2.49 4.19,-4.48 8.38,-11.82 11.08,-17.21 5.3,-10.59 8.56,-27.1 8.56,-38.77 0,-9.24 -0.74,-15.39 -3.48,-23.68 -1.82,-5.48 -5.75,-12.66 -9.78,-16.67 -4.25,-4.23 -6.98,-6.74 -12.74,-9.62 -1.91,-0.96 -3.63,-1.76 -5.64,-2.5 -15.76,-5.87 -36.67,-5.21 -52.05,0.95 -7,2.8 -12.02,5.92 -17.83,10.64l-4.27 3.86c-2.54,2.55 -5.36,5.9 -7.46,8.82 -10.23,14.23 -15.42,32.39 -15.42,49.84z"/>
   <path class="fil0" d="M176.19 103.12c-3.46,0 -6.15,0.15 -9.38,-1.16 -2.06,-0.82 -2.98,-1.42 -4.65,-2.74 -11.06,-8.75 -7.23,-35.01 -2.05,-46.75 2.9,-6.58 6.83,-12.72 13.09,-16.49 5.34,-3.22 8.47,-3.48 14.64,-3.48 2.95,0 5.67,1 8.07,2.28 1.02,0.54 2.2,1.42 2.97,2.2 10.04,10.12 6.77,33.48 2.22,44.83 -3.37,8.39 -8.63,16.19 -17.3,19.68 -1.92,0.77 -4.88,1.63 -7.61,1.63zm-60.27 -23.85c0,11.87 2.79,24.77 8.72,33.62 2.26,3.36 3.54,4.99 6.39,7.84l2.68 2.5c3.66,3.49 10.33,6.71 14.69,8.42 11.51,4.53 29.02,5.05 41.14,2.2 4.96,-1.17 9.79,-2.72 13.89,-4.78 1.83,-0.92 4.26,-2.12 6,-3.24 1.81,-1.16 5.19,-3.44 6.82,-4.83 0.47,-0.39 0.88,-0.7 1.31,-1.1 0.48,-0.45 0.73,-0.61 1.2,-1.02 1.43,-1.26 4.87,-4.65 5.87,-5.96 0.37,-0.48 0.63,-0.68 1.03,-1.18 0.4,-0.52 0.65,-0.85 1.06,-1.35 8.18,-10.08 13.34,-22.52 15.95,-35.44 3.24,-16.05 3.05,-33.91 -4.3,-48.61 -0.5,-1.01 -0.85,-1.71 -1.41,-2.66l-1.58 -2.49c-0.93,-1.24 -2.53,-3.5 -3.59,-4.54 -0.39,-0.39 -0.64,-0.6 -0.98,-1.05 -0.94,-1.21 -4.15,-3.89 -5.36,-4.81 -1.85,-1.41 -5.41,-3.69 -7.54,-4.67 -6.41,-2.94 -11.37,-4.35 -18.97,-5.43 -9.78,-1.39 -21.22,-0.53 -29.67,1.6 -8.51,2.14 -16.01,5.86 -22.21,10.32 -0.82,0.59 -1.57,1.14 -2.33,1.75l-8.42 7.84c-0.41,0.49 -0.46,0.63 -0.93,1.1 -3.42,3.44 -8.26,11.39 -10.53,15.92 -2.15,4.3 -3.16,7.29 -4.61,11.66 -2.55,7.67 -4.32,18.29 -4.32,28.39z"/>
   <path class="fil0" d="M316.33 103.12c-4.03,0 -7.67,0 -11.2,-2.11 -2.23,-1.32 -3.88,-2.74 -5.33,-4.84 -6.31,-9.08 -4.68,-25.04 -2.15,-35.2 1.17,-4.68 3.08,-9.66 5.29,-13.39 3.55,-5.99 7.57,-10.76 14.42,-13.5 5.45,-2.18 13.25,-2.3 18.57,0.45 1.99,1.03 3.97,2.89 5.28,4.7 2.88,4 4.51,10.49 4.51,15.64 0,7.38 -0.21,13.85 -2.28,21.01 -1.61,5.59 -4.81,13.63 -9.04,18.14 -2.05,2.18 -1.85,2.23 -4.68,4.38 -3.04,2.31 -8.14,4.72 -13.39,4.72zm-59.9 -26.25c0,10.9 0.68,18.51 4.41,27.76 3.2,7.96 6.78,12.61 12.83,18.23l6.09 4.45c2.18,1.41 7.17,3.7 9.41,4.45 7.4,2.47 15.72,3.9 23.83,3.9l8.93 -0.5c10.13,-1.32 16.45,-3.11 25.4,-7.88 11.48,-6.12 22.13,-17.81 27.91,-29.39 0.3,-0.6 0.53,-1.05 0.81,-1.6l3.53 -8.49c5.72,-15.83 7.69,-37.82 2.31,-53.94 -0.7,-2.08 -1.34,-4.01 -2.27,-5.86 -0.49,-0.97 -0.9,-1.79 -1.36,-2.71 -3.61,-7.29 -11.32,-14.68 -18.3,-18.3 -5.75,-2.99 -11.66,-4.93 -18.41,-6 -14.01,-2.23 -29.62,-0.73 -42.11,4.83 -8.58,3.81 -16.26,9.19 -22.45,16.19 -7.18,8.13 -12,15.76 -15.73,26.97 -2.77,8.32 -4.83,18.72 -4.83,27.89z"/>
   <path class="fil0" d="M527.27 132.52l38.09 0c0.02,-0.96 0.45,-2.55 0.66,-3.59l6.04 -29.27c0.89,-4.46 0.84,-4.18 4.07,-7.03l8.23 -7.3c0.5,-0.47 0.64,-0.6 1.18,-1.04 0.53,-0.43 0.58,-0.76 1.26,-0.95l1.38 3.07c0.25,0.61 0.44,0.91 0.72,1.49 0.28,0.57 0.42,1.03 0.67,1.55 2.23,4.5 4.16,9.23 6.42,13.73l7.09 15.29c0.26,0.54 0.46,1.12 0.73,1.67 0.49,0.99 0.9,1.97 1.42,3.01l1.48 3.14c0.28,0.6 0.38,0.96 0.67,1.55l2.16 4.68 43.64 0c-0.1,-1.18 -1.62,-3.8 -2.16,-4.87l-2.28 -4.74c-0.39,-0.79 -0.72,-1.62 -1.11,-2.41l-5.67 -11.89c-3.55,-7.05 -6.69,-14.33 -10.23,-21.39l-4.56 -9.49c-0.43,-0.85 -0.68,-1.55 -1.11,-2.4 -3.14,-6.23 -5.87,-12.84 -9.12,-18.98 1.12,-0.75 8.8,-7.69 10.21,-9.01l14.15 -12.48c0.67,-0.67 1.19,-1 1.84,-1.67l20.71 -18.3c0.68,-0.67 1.19,-1 1.85,-1.66l8.32 -7.4c0.68,-0.6 2.61,-1.93 2.82,-2.72l-42.52 0c-2.87,-0.01 -2.59,-0.22 -4.57,1.71 -0.49,0.47 -0.73,0.54 -1.21,1.01 -0.77,0.74 -1.44,1.32 -2.22,2.04l-2.3 1.95c-1.57,1.31 -2.95,2.86 -4.57,4.11 -0.55,0.43 -0.6,0.52 -1.08,0.96 -1.45,1.36 -3.11,2.57 -4.53,3.98l-18.12 16.08c-0.48,0.43 -0.7,0.51 -1.2,1.02 -0.47,0.48 -0.59,0.54 -1.09,0.94l-2.24 2.01c-0.5,0.52 -0.66,0.59 -1.19,1.03 -0.43,0.37 -0.58,0.61 -1.06,0.98l-2.28 1.97c-1.13,1.05 -2.24,2.22 -3.55,3.1 0.68,-2.95 1.26,-6.05 1.86,-9.05l3.76 -18.24c0.63,-3.14 1.39,-6.04 1.84,-9.27 0.41,-3.01 -1.46,-5.61 -4.42,-6.23 -1.72,-0.37 -30.01,-0.1 -33.18,-0.1 -1.24,5.31 -2.23,10.86 -3.28,16.13 -1.11,5.53 -2.19,10.76 -3.3,16.3 -2.18,10.92 -4.39,21.57 -6.56,32.44l-12.32 60.89c-0.18,0.9 -1.2,3.65 -0.24,3.65z"/>
   <path class="fil0" d="M0 132.52l94.84 0 4.64 -23.65c0.38,-1.88 0.54,-2.28 0.54,-4.27 0,-2.96 -2.19,-5.36 -5.18,-5.36l-48.81 0 14.32 -72.02c0.22,-1.11 4.73,-22.91 4.73,-24.11l-38.46 0c-0.68,0 -0.65,0.9 -0.79,1.61 -1.88,10.03 -4.15,20.43 -6.16,30.45 -2.18,10.89 -4.41,21.53 -6.59,32.41 -0.17,0.84 -13.08,63.34 -13.08,64.94z"/>
   <path class="fil0" d="M481.61 183.18l0.05 0.05c0,0 -0.07,-0.04 -0.05,-0.05zm0.37 -0.37l0 0zm63.04 -0.19l0 0zm-44 -4.07l0 0zm0.19 -0.37l-0.19 0.37 0.19 -0.37zm63.78 6.11c0.72,-1.37 1.32,-2.64 2.09,-4.01 5.79,-10.39 12.59,-12.98 8.69,-5.17 -0.73,1.47 -1.6,2.81 -2.57,4.08 -1.8,2.38 -4.15,5.1 -8.21,5.1zm-19.97 -1.67c0.66,-2.84 7.1,-14.4 8.94,-18.05 0.75,-1.5 1.54,-2.91 2.35,-4.31 1.48,-2.57 3.43,-6 5.09,-8.4 0.77,-1.12 2.11,-3.03 3.77,-3.07 0.41,1.76 -0.48,3.75 -1.17,5.12 -3.36,6.71 -4.98,9.15 -8.77,15.07 -2.36,3.67 -4.38,6.47 -7.01,10 -0.7,0.93 -2.33,3.06 -3.2,3.64zm-43.81 -4.44c0.07,-0.3 1.38,-3.16 1.91,-4.92 0.56,-1.86 0.78,-4.04 0.05,-5.91 -0.32,-0.83 -0.83,-1.37 -1.46,-1.88 -1.96,-1.61 -5.34,-0.16 -7.19,2.15l-4.8 5.55c-0.57,0.69 -0.99,1.23 -1.58,1.93l-6.16 7.71 3.03 -6.03c0.83,-1.38 2.42,-4.61 2.92,-6.14 1.19,-3.74 -4.15,-7.93 -6.07,-5.52 -1.06,1.33 -2.26,4.34 -3.09,5.98 -0.55,1.09 -0.92,2.04 -1.48,3.14 -3.03,6.03 -7.3,16.26 -9.2,22.59 -0.46,1.52 -0.62,2.34 0.14,3.79 3.29,6.28 5.9,1.07 8.76,-3.21l5.28 -8.21c0.64,-1.06 1.14,-1.79 1.82,-2.81 2.67,-4.01 5.57,-7.96 8.84,-11.49 0.83,-0.89 2.7,-3.04 3.47,-3.56 -0.2,2.44 -4.87,10.62 -6.41,13.37l-4.62 8.51c-0.72,1.45 -1.65,2.99 -2.11,4.55 -0.99,3.34 3.9,7.19 6.59,4.74 1.3,-1.18 3.3,-6.69 4.39,-8.74 0.74,-1.38 1.81,-2.69 2.68,-3.97l5.42 -7.71c1.89,-2.5 3.74,-5.14 5.76,-7.55 0.78,-0.91 2.29,-2.92 3.46,-3.2l-5.61 11.04c-1.69,3.39 -5.64,11.29 -4.7,15.54 0.23,1.06 0.66,2.17 1.21,3.05 1.02,1.63 2.75,3.15 5.19,2.72 4.14,-0.73 6.55,-4.84 9.09,-7.76 0,2.97 0.37,5.11 2.1,6.41 4.34,3.24 10.66,-3.44 13.3,-6.72l1.97 -2.46c0,3.45 0.38,5.91 2.08,7.72 5.55,5.92 11.62,1.6 16.09,-3.05 0.73,-0.75 1.54,-2.04 2.36,-2.64 0.06,2.94 2.16,6.26 4.55,7.65 4.42,2.55 9.75,1.31 13.61,-1.87 1.69,-1.4 5.1,-4.12 5.9,-6.3 0.38,-1.04 0.68,-2.65 0.52,-3.91 -0.1,-0.72 -0.47,-1.12 -1.12,-0.92 -0.56,0.17 -4.95,4.92 -6.48,6.07 -0.95,0.71 -3,2.13 -4.42,2.24 -5.16,0.42 -5.29,-4.68 -4.31,-8.2 0.29,-1.04 1.15,-0.66 2.44,-0.88 7.04,-1.2 14.99,-6.3 16.71,-13.61 1.46,-6.23 -2.77,-11.2 -9.34,-9.9 -4.07,0.8 -5.16,2.68 -7.42,4.41 -1.33,1.02 -3.04,3.18 -3.95,4.55 -4.61,6.94 -5.22,12.03 -6.4,13.57l-4.59 5.58c-1.53,1.73 -3.41,3.82 -5.92,4.26 -3.57,0.63 -2.75,-5.41 -1.92,-6.73 0.22,-0.35 0.52,-0.54 0.8,-0.87 0.37,-0.43 0.41,-0.58 0.84,-1.01l4.74 -5.25c3.53,-4.38 7.26,-8.57 10.38,-13.28 3.29,-4.96 11.38,-16.92 9.97,-23.29 -0.38,-1.71 -1.33,-3.14 -2.89,-3.76 -6.64,-2.63 -15.35,11.18 -17.88,15.32l-3.08 5.25c-0.22,0.39 -0.36,0.56 -0.61,1.05l-5.6 11.41c-0.37,0.79 -0.69,1.57 -0.99,2.34 -0.84,2.17 -6.26,10.08 -7.89,12.26 -0.71,0.93 -3.86,5.63 -4.96,5.03 -2.07,-1.12 6.85,-17.42 7.6,-18.66l2.35 -4.49c1.2,-2.14 2.12,-5.14 -0.34,-7.17 -2.49,-2.04 -5.08,-0.31 -6.56,1.93 -0.87,1.31 -2.31,4.99 -3.26,6.91 -0.42,0.84 -0.79,1.41 -1.18,2.15 -1.5,2.91 -3.24,5.75 -4.93,8.57 -2.06,3.45 -4.42,6.76 -7.22,9.6 -0.67,0.68 -1,1.25 -2.27,1.25 -0.34,-1.47 0.11,-2.4 0.61,-3.65l4.88 -9.54c1.27,-2.11 6.33,-10.23 5.91,-12.99 -1.16,-7.66 -7.84,-5.78 -12.18,-1.42 -2.42,2.43 -4.42,5.19 -6.48,7.95 -0.35,0.48 -0.65,1.05 -1.05,1.34z"/>
   <path class="fil0" d="M226.29 187.43l0 0zm-35.13 -4.25l0 0zm19.42 14.05c-3.81,0 -0.1,-9.42 0.26,-10.28 0.46,-1.11 0.93,-2.11 1.46,-3.16 1.79,-3.58 7.19,-13 11.03,-13 3.16,0 -4,14.84 -4.37,15.59 -1.24,2.48 -4.81,10.85 -8.38,10.85zm-19.42 -14.05l0 0zm35.13 4.25c0.64,-2.74 6.59,-13.77 2.17,-19.73 -2,-2.7 -5.9,-3.36 -9.07,-1.96 -0.76,0.34 -1.98,1.12 -2.64,1.61 -5.77,4.36 -10.41,11.25 -13.57,17.67 -1.21,2.45 -0.22,1.1 -2.35,3.94 -1.81,2.42 -3.61,4.69 -5.74,6.83 -0.93,0.94 -3.51,3.15 -5.39,2.91 -2.16,-0.27 -2.05,-6.05 -0.53,-7.54 1.52,-1.49 1.73,-2.02 2.96,-3.32l5.69 -6.88c3.15,-4.03 7.85,-10.23 10.46,-14.5 2.97,-4.85 10.09,-16.5 5.95,-20.96 -4.04,-4.35 -10.24,1.01 -12.98,4.5 -0.37,0.48 -0.54,0.62 -0.92,1.11 -0.36,0.46 -0.63,0.8 -0.99,1.23 -2,2.42 -5.02,7.39 -6.59,10.05 -3.23,5.45 -12.12,23.59 -12.12,29.66 -1.77,0.93 -3.12,1.84 -3.68,3.53 -0.48,1.45 -0.99,4.76 0.72,5.9 0.66,-0.35 1.18,-0.72 1.81,-1.14 0.62,-0.43 1.12,-0.88 1.7,-1.26 0.85,1.77 1.27,3.28 3.82,4.5 5.74,2.74 10.06,-1.87 13.7,-5.47 0.42,-0.43 0.63,-0.62 0.97,-1.07 0.36,-0.47 0.6,-0.77 1.11,-1.11 0.64,7.75 8.98,10.87 15.49,5.51 3.78,-3.12 5.1,-5.94 6.15,-6.98 0.17,-0.17 -0.04,-0.06 0.41,-0.32l8.08 -4.31c-0.17,2.03 -1.17,4.17 -0.58,7.61 0.46,2.72 1.37,4.1 3.28,5.41 2.03,1.41 4.38,1.31 6.67,0.23 2.02,-0.94 4.72,-3.01 6.22,-4.5l3.03 -3.44c2.6,-3.08 4.93,-6.9 7,-10.38l2.96 -5.73c1.25,-3.02 3.39,-6.57 2.19,-9.98 -0.78,-2.23 -3.16,-3.61 -5.22,-1.55 -1.12,1.12 -4.33,9.63 -5.39,11.98l-4.31 8.63c-1.17,2.09 -4.84,7.96 -7.38,8.92 -0.7,0.27 -1.14,0.03 -1.35,-0.63 -0.13,-0.4 -0.11,-0.75 -0.11,-1.2 0,-2.59 1.78,-8.37 2.74,-10.78 1.87,-4.75 2.64,-6.34 5.35,-10.92 1.01,-1.69 3.77,-4.95 0.4,-7.12 -0.88,-0.57 -2.73,-1.44 -4.02,-0.95 -1.09,0.42 -2.11,1.67 -2.75,2.62 -2.54,3.75 -3.54,6.97 -5.46,10.82 -1.17,2.34 -5.7,8.05 -7.89,8.56z"/>
   <path class="fil0" d="M341.29 196.49c-2.38,0 -2.41,-0.74 -2.41,-3.15 0,-2.32 1.46,-6.06 2.22,-7.76 1.93,-4.29 6.28,-11.97 10.46,-14.87 0.91,-0.63 3.04,-1.59 3.04,0.45 0,5.12 -5.31,16.46 -8.25,20.97 -0.54,0.84 -1.32,1.95 -1.96,2.65 -0.71,0.77 -1.71,1.71 -3.1,1.71zm43.26 -0.74c-0.64,-1.32 -0.06,-2.52 0.39,-3.86 1.41,-4.22 3.59,-8.04 5.59,-11.98l3.52 -6.64c1.04,-1.74 2.14,-3.52 2.14,-5.81 0,-3.24 -4.1,-7.5 -7.8,-1.33l-3.16 5.71c-1.52,2.72 -2.82,5.58 -4.7,8.06l-4.34 6.38c-1.67,2.51 -5.92,9.04 -8.84,9.28 0,-2.94 0.85,-5.12 1.97,-7.64l3.82 -8.2c1.64,-3.28 5.31,-8.43 5.31,-11.7 0,-4.34 -4.72,-5.96 -7.11,-2.49 -1.75,2.55 -3.4,5.36 -4.79,8.16l-2.64 5.11c-0.77,1.52 -3.16,4.68 -4.58,5.78 -1.16,0.89 -1.73,1.58 -3.07,2.29 0.47,-2 8.17,-16.53 0.64,-21.71 -2.5,-1.71 -6.38,-0.55 -8.71,0.7 -2.97,1.58 -5.31,4.28 -7.5,6.74 -1.76,1.97 -3.39,4.22 -4.8,6.47 -3.14,5.01 -8.02,16.32 -2.61,21.72 3.52,3.51 8.52,2.96 12.26,0.32 3.45,-2.45 6.3,-7.05 7.15,-7.64l7.27 -3.64c-0.52,1.09 -0.56,3.73 -0.56,5.18 0,5.24 4.11,9.77 9.38,5.86 3.02,-2.23 5.28,-5.05 7.49,-8.04 0.15,-0.21 0.19,-0.26 0.33,-0.41l-0.19 2.59c0,6.49 4.39,9.28 9.07,5.92 0.42,-0.3 0.55,-0.5 0.99,-0.85 5.85,-4.57 13.82,-20.28 17.5,-26.69 0.46,-0.81 0.89,-1.42 1.34,-2.36 0.73,-1.49 1.33,-1.72 2.9,-1.72 1.31,0 2.4,1.13 2.4,2.4 0,1.07 -0.59,2.26 -1.02,3.04 -1.49,2.69 -3.43,5.17 -4.89,7.87 -2.2,4.07 -7.17,12.56 -3.18,17.6 2.87,3.62 9.29,1.26 11.61,-1.77 0.85,-1.13 1.66,-1.87 2.42,-3.13 0.52,-0.86 1.72,-2.65 1.72,-3.82 0,-0.86 -0.46,-1.67 -1.29,-1.67 -2.52,0 -4.31,5.18 -7.21,5.18 -3.06,0 7.5,-15.61 8.12,-16.65 0.73,-1.21 2.41,-4.13 2.41,-5.91 0,-4.51 -6.37,-5.47 -9.61,-7.02 0.41,-1.75 4.48,-8.32 -0.18,-8.32 -1.77,0 -4.28,1.77 -5.11,2.85 -1.42,1.84 -1.93,2.85 -1.92,6.02 0,1.59 0.2,2.35 -0.43,3.46 -1.43,2.57 -3.11,4.95 -4.44,7.57 -0.9,1.79 -1.98,3.36 -2.89,5.06 -1.36,2.5 -2.97,4.94 -4.48,7.36l-3.29 4.66c-0.57,0.74 -1.19,1.56 -2.4,1.66z"/>
   <path class="fil0" d="M95.21 196.67l-0.1 0.4 0.1 -0.4zm15.9 -17.75l0.1 -0.39 -0.1 0.39zm0.19 -0.74l0.05 0.06c0,0 -0.07,-0.04 -0.05,-0.06zm-16.09 18.49l6.21 -15.79c0.73,-1.87 1.16,-3.65 1.81,-5.58 0.94,-2.77 2.51,-8.6 3.09,-11.52 1.18,-5.88 2.53,-12.23 -3.78,-16.03 -2.46,-1.48 -6.01,-1.88 -9.13,-1.14 -3.96,0.95 -6.32,3.05 -9.06,5.74 -3.35,3.27 2.7,5.23 7.72,2.91 1.36,-0.62 5.48,-4.84 7.27,-2.84 1.56,1.75 -0.38,10.96 -0.84,12.79 -2.24,9.02 -4.97,16.26 -8.36,24.73 -2.69,6.74 -4.95,7.72 -0.85,13.02 5.32,6.88 8.29,0.31 11.22,-5.06l6.48 -12.01c0.51,-0.92 3.7,-6.66 4.12,-6.97 -0.46,1.99 -2.29,5.48 -3.09,9.85 -0.26,1.38 -0.31,2.45 -0.53,3.91 -0.15,1.05 0.01,2.92 0.21,3.89 0.63,3.03 2.5,6.55 5.2,8.11 4.51,2.62 8.17,-0.68 11.38,-3.89 2.78,-2.78 7.49,-8.78 9.56,-12.26 3.76,-6.29 4.08,-6.65 7.78,-14.04 2.15,-4.3 3.54,-7.96 5.01,-12.55 0.77,-2.4 1.26,-4.38 1.28,-7.61 0.01,-4.12 -1.84,-6.57 -5,-8.13 -1.24,-0.62 -1.85,-0.74 -3.7,-0.74l-0.51 0.6c-0.04,3.25 0.33,5.53 -0.2,8.67 -1.1,6.55 -3.17,11.51 -5.65,17.46l-6.08 12.59c-0.55,1.09 -1.09,2.05 -1.71,3.1 -1.66,2.79 -3.39,5.91 -5.67,8.19 -2.58,2.58 -4.1,2.52 -4.03,-1.81 0.11,-7.34 8.29,-31.97 11.78,-38.88 1.2,-2.39 2,-4.66 -0.39,-6.52 -5.23,-4.05 -5.62,-0.57 -9.04,5.78l-9.37 18.37c-0.49,0.99 -1,1.81 -1.54,2.89 -2.07,4.15 -10.12,19.7 -11.59,20.77z"/>
   <path class="fil0" d="M506.2 242.34c-7.2,0 -10.91,-0.01 -18.2,-1.03 -11.7,-1.64 -23.42,-4.94 -33.57,-10.07 -9.09,-4.58 -11.46,-6.03 -20.1,-12.43l-11.77 -10.23c-2.86,-1.72 -9.17,-0.98 -9.17,4.36 0,1.6 2.51,3.9 3.46,4.86 1.53,1.52 4.75,4.87 6.41,6.16 0.83,0.64 1.52,1.28 2.29,1.97l4.74 3.76c3.23,2.41 6.55,4.67 10.05,6.77l2.57 1.5c2.28,1.26 6.25,3.34 8.48,4.27 9.94,4.12 13.74,5.76 25.52,8.13 2.06,0.42 8.74,1.46 10.99,1.59 1.11,0.06 2.86,0.09 3.98,0.26l8.14 0.22c1.46,-0.22 4.88,-0.01 8.08,-0.43 1.31,-0.17 2.42,-0.15 3.73,-0.34 9.64,-1.36 14.39,-2.17 24.16,-5.42 8.44,-2.8 16.07,-6.53 23.07,-10.75 3.78,-2.28 8.81,-5.82 12.26,-8.64l11 -10.07c0.46,-0.46 0.53,-0.66 0.93,-1.11 0.36,-0.42 0.71,-0.71 1.11,-1.11 0.45,-0.45 0.52,-0.66 0.92,-1.11l4.85 -5.87c0.32,-0.42 0.56,-0.68 0.9,-1.13 0.79,-1.05 2.43,-3.05 2.43,-4.05 0,-0.66 -0.5,-0.77 -0.91,-0.57 -0.61,0.28 -1.55,1.59 -2,2.1l-10.17 9.98c-0.46,0.43 -0.63,0.54 -1.1,0.94l-2.22 1.85c-5.34,4.32 -13.12,9.54 -19.47,12.7 -11.97,5.95 -26.4,10.9 -39.95,12.18 -3.96,0.38 -7.29,0.76 -11.44,0.76z"/>
   <path class="fil0" d="M439.27 169.68c0,7.01 7.7,11.69 12.82,14.73 12.19,7.24 -5.16,14.45 -12.64,10.97 -1.42,-0.66 -2.4,-1.84 -2.4,-3.7 0,-1.37 1.56,-1.81 1.67,-3.14 -3.32,-1.76 -7.03,3.62 -7.03,6.1 0,1.47 0.03,2.52 0.81,3.81 0.43,0.71 1.14,1.63 1.73,2.15 5.13,4.51 11.19,4.5 17.61,2.91 5.6,-1.38 10.38,-4.43 13.35,-9.39 1.74,-2.89 2.58,-6.59 0.88,-9.83 -0.53,-1.01 -1.26,-1.73 -2.07,-2.55 -3.16,-3.18 -14.56,-7.26 -14.56,-12.61 0,-3.12 0.54,-4.25 2.55,-7.44 1.06,-1.69 2.37,-3.2 3.86,-4.45 0.84,-0.71 1.38,-1.16 2.31,-1.76 0.91,-0.58 1.81,-0.96 2.8,-1.45 2.97,-1.49 5,-1.91 8.26,-1.91 0.74,0 0.92,0.38 1.67,0.55 0,4.23 -8.91,12.35 -4.55,18.97 0.42,0.63 1.24,1.74 2.14,1.74 1.87,0 1.44,-2.26 3.25,-5.26 0.59,-0.98 1.09,-1.63 1.67,-2.58 2.32,-3.82 7.84,-10.52 7.84,-14.53 0,-0.21 -4.51,-8.79 -7.65,-2.47l-0.67 1.17c-0.62,-2.64 -3.98,-5.17 -7.4,-5.17 -4.35,0 -7.39,1.05 -10.68,3.17 -2.6,1.67 -4.79,3.52 -6.93,5.65 -1.65,1.65 -4.2,5.06 -5.37,7.02 -1.29,2.16 -3.27,6.02 -3.27,9.3z"/>
   <path class="fil0" d="M317.25 193.16l-0.18 0.37 0.18 -0.37zm0 0l0 0zm-0.18 0.37c-0.05,0.59 -0.68,1.84 -0.93,2.4 -1.49,3.33 -3.35,6.96 -5.32,10.02 -10.58,16.39 -14.29,4.76 -15.9,3.98 -1.54,-0.74 -3.04,1.65 -2.25,4.11 1.57,4.89 15.74,11.27 25.5,-4.99l3.7 -6.65 5.34 -11.85c1.34,-3.27 2.6,-6.43 4.03,-9.66 0.74,-1.67 1.38,-3.13 2.1,-4.74 1.28,-2.88 4.08,-6.47 2.8,-10.2 -0.51,-1.49 -2.11,-2.98 -4.4,-2.49 -2.13,0.46 -4.02,4.78 -5.06,6.78 -1.23,2.38 -7.84,14.46 -9.48,16.4l-6.93 6.93c-0.7,0.59 -1.24,1.07 -2.45,1.07 -0.5,-2.16 1.73,-6.8 2.78,-8.88l7.15 -13c0.94,-1.7 2.43,-3.46 1.16,-5.67 -1.53,-2.67 -5.41,-4.27 -7.47,-1.19 -0.31,0.47 -0.47,0.79 -0.76,1.27 -2.34,3.88 -4.23,7.88 -6.25,11.88 -2.24,4.44 -5.94,14.21 -5.2,18.82 0.39,2.43 1.28,3.86 3.3,4.65 2.6,1.01 4.56,0.11 6.41,-0.85 1.26,-0.66 3.52,-2.62 4.4,-3.73 0.34,-0.42 0.64,-0.63 1,-1.04 0.78,-0.88 2.16,-2.99 2.73,-3.37z"/>
   <path class="fil0" d="M148.27 184.84c0.73,-1.38 0.93,-2.18 2.03,-4.08l2.37 -3.91c1.05,-1.57 4.33,-6.06 6.51,-6.06 0.87,0 0.74,0.9 0.74,1.48 0,2.45 -4.63,10.55 -9.03,12.04 -0.81,0.28 -1.73,0.32 -2.62,0.53zm-9.98 7.95c0,3.64 0.04,6.42 2.82,9.2 3.26,3.26 8.01,3.51 12.09,1.46 2.78,-1.39 7.47,-5.6 8.79,-8.04 0.4,-0.75 1.61,-5.39 -0.22,-5.39 -0.67,0 -2.3,1.97 -2.7,2.48 -0.73,0.95 -1.62,1.88 -2.53,2.64 -1.54,1.29 -4.16,3.57 -6.79,3.57 -2.01,0 -3.7,-1.87 -3.7,-3.89 0,-2.72 0.37,-4.3 0.37,-4.99 2.52,0 5.23,-0.98 7.11,-1.77 12.71,-5.31 15.41,-19.01 7.39,-21.78 -4.24,-1.47 -8.19,0 -11.31,2.89 -4.77,4.42 -6.84,7.99 -9.18,14.11 -0.9,2.35 -2.14,6.44 -2.14,9.51z"/>
   <path class="fil0" d="M268.07 183.55l2.05 -4.06c1.5,-2.61 6.01,-9.81 9.05,-9.81 0.83,0 0.74,0.82 0.74,1.29 0,2.19 -3.02,6.63 -4.15,8.06 -1.72,2.19 -3.98,4.43 -7.69,4.52zm-10.16 8.69c0,3.4 0.33,5.97 2.81,8.45 4.77,4.77 11.46,2.76 15.99,-1.11l4.72 -4.9c1.09,-1.74 1.41,-5.77 0.32,-5.77 -1.14,0 -2.21,1.62 -2.82,2.35 -1.83,2.18 -6.24,6.15 -9.38,6.15 -4.76,0 -4.07,-5.69 -3.33,-8.87 4.34,0 9.62,-2.5 12.72,-5.04 2.5,-2.04 4.61,-4.46 5.75,-7.56 3.41,-9.27 -5.86,-15.78 -15.27,-7.87 -0.97,0.82 -2.04,2.01 -2.97,2.95 -0.86,0.87 -1.81,2.3 -2.52,3.39 -2.43,3.71 -6.02,11.86 -6.02,17.83z"/>
   <path class="fil0" d="M534.3 155.63c0,1.41 0.25,2.49 0.99,3.44 1.42,1.86 4.06,1.64 5.89,0.48 4.77,-2.99 5.98,-11.5 -0.41,-11.5 -1.75,0 -3.64,1.54 -4.47,2.56 -0.89,1.1 -2,3.1 -2,5.02z"/>
  </g>
 </g>
</svg>
