<svg width="87" height="87" viewBox="0 0 87 87" fill="none" xmlns="http://www.w3.org/2000/svg">
<path d="M3.48 0H0V3.48H3.48V0Z" fill="#000"/>
<path d="M6.96 0H3.48V3.48H6.96V0Z" fill="#000"/>
<path d="M10.44 0H6.96V3.48H10.44V0Z" fill="#000"/>
<path d="M13.92 0H10.44V3.48H13.92V0Z" fill="#000"/>
<path d="M17.4 0H13.92V3.48H17.4V0Z" fill="#000"/>
<path d="M20.88 0H17.4V3.48H20.88V0Z" fill="#000"/>
<path d="M24.36 0H20.88V3.48H24.36V0Z" fill="#000"/>
<path d="M31.32 0H27.84V3.48H31.32V0Z" fill="#000"/>
<path d="M34.8 0H31.32V3.48H34.8V0Z" fill="#000"/>
<path d="M38.28 0H34.8V3.48H38.28V0Z" fill="#000"/>
<path d="M45.24 0H41.76V3.48H45.24V0Z" fill="#000"/>
<path d="M52.2 0H48.72V3.48H52.2V0Z" fill="#000"/>
<path d="M59.16 0H55.68V3.48H59.16V0Z" fill="#000"/>
<path d="M66.12 0H62.64V3.48H66.12V0Z" fill="#000"/>
<path d="M69.6 0H66.12V3.48H69.6V0Z" fill="#000"/>
<path d="M73.08 0H69.6V3.48H73.08V0Z" fill="#000"/>
<path d="M76.56 0H73.08V3.48H76.56V0Z" fill="#000"/>
<path d="M80.04 0H76.56V3.48H80.04V0Z" fill="#000"/>
<path d="M83.52 0H80.04V3.48H83.52V0Z" fill="#000"/>
<path d="M87 0H83.52V3.48H87V0Z" fill="#000"/>
<path d="M3.48 3.48H0V6.96H3.48V3.48Z" fill="#000"/>
<path d="M24.36 3.48H20.88L20.88 6.96H24.36V3.48Z" fill="#000"/>
<path d="M38.28 3.48H34.8V6.96H38.28V3.48Z" fill="#000"/>
<path d="M41.76 3.48H38.28V6.96H41.76V3.48Z" fill="#000"/>
<path d="M55.68 3.48H52.2L52.2 6.96H55.68V3.48Z" fill="#000"/>
<path d="M66.12 3.48H62.64V6.96H66.12V3.48Z" fill="#000"/>
<path d="M87 3.48H83.52V6.96H87V3.48Z" fill="#000"/>
<path d="M3.48 6.96H0V10.44H3.48V6.96Z" fill="#000"/>
<path d="M10.44 6.96H6.96V10.44H10.44V6.96Z" fill="#000"/>
<path d="M13.92 6.96H10.44V10.44H13.92V6.96Z" fill="#000"/>
<path d="M17.4 6.96H13.92V10.44H17.4V6.96Z" fill="#000"/>
<path d="M24.36 6.96H20.88V10.44H24.36V6.96Z" fill="#000"/>
<path d="M31.32 6.96H27.84V10.44H31.32V6.96Z" fill="#000"/>
<path d="M34.8 6.96H31.32V10.44H34.8V6.96Z" fill="#000"/>
<path d="M41.76 6.96H38.28V10.44H41.76V6.96Z" fill="#000"/>
<path d="M48.72 6.96H45.24V10.44H48.72V6.96Z" fill="#000"/>
<path d="M52.2 6.96H48.72V10.44H52.2L52.2 6.96Z" fill="#000"/>
<path d="M55.68 6.96H52.2L52.2 10.44H55.68V6.96Z" fill="#000"/>
<path d="M59.16 6.96H55.68V10.44H59.16V6.96Z" fill="#000"/>
<path d="M66.12 6.96H62.64V10.44H66.12V6.96Z" fill="#000"/>
<path d="M73.08 6.96H69.6V10.44H73.08V6.96Z" fill="#000"/>
<path d="M76.56 6.96H73.08V10.44H76.56V6.96Z" fill="#000"/>
<path d="M80.04 6.96H76.56V10.44H80.04V6.96Z" fill="#000"/>
<path d="M87 6.96H83.52V10.44H87V6.96Z" fill="#000"/>
<path d="M3.48 10.44H0V13.92H3.48V10.44Z" fill="#000"/>
<path d="M10.44 10.44H6.96V13.92H10.44V10.44Z" fill="#000"/>
<path d="M13.92 10.44H10.44V13.92H13.92V10.44Z" fill="#000"/>
<path d="M17.4 10.44H13.92V13.92H17.4V10.44Z" fill="#000"/>
<path d="M24.36 10.44H20.88V13.92H24.36V10.44Z" fill="#000"/>
<path d="M34.8 10.44H31.32V13.92H34.8V10.44Z" fill="#000"/>
<path d="M38.28 10.44H34.8V13.92H38.28V10.44Z" fill="#000"/>
<path d="M41.76 10.44H38.28V13.92H41.76V10.44Z" fill="#000"/>
<path d="M45.24 10.44H41.76V13.92H45.24V10.44Z" fill="#000"/>
<path d="M48.72 10.44H45.24V13.92H48.72V10.44Z" fill="#000"/>
<path d="M55.68 10.44H52.2L52.2 13.92H55.68V10.44Z" fill="#000"/>
<path d="M59.16 10.44H55.68V13.92H59.16V10.44Z" fill="#000"/>
<path d="M66.12 10.44H62.64V13.92H66.12V10.44Z" fill="#000"/>
<path d="M73.08 10.44H69.6V13.92H73.08V10.44Z" fill="#000"/>
<path d="M76.56 10.44H73.08V13.92H76.56V10.44Z" fill="#000"/>
<path d="M80.04 10.44H76.56V13.92H80.04V10.44Z" fill="#000"/>
<path d="M87 10.44H83.52V13.92H87V10.44Z" fill="#000"/>
<path d="M3.48 13.92H0V17.4H3.48V13.92Z" fill="#000"/>
<path d="M10.44 13.92H6.96V17.4H10.44V13.92Z" fill="#000"/>
<path d="M13.92 13.92H10.44V17.4H13.92V13.92Z" fill="#000"/>
<path d="M17.4 13.92H13.92V17.4H17.4V13.92Z" fill="#000"/>
<path d="M24.36 13.92H20.88V17.4H24.36V13.92Z" fill="#000"/>
<path d="M31.32 13.92H27.84V17.4H31.32V13.92Z" fill="#000"/>
<path d="M48.72 13.92H45.24V17.4H48.72V13.92Z" fill="#000"/>
<path d="M52.2 13.92H48.72V17.4H52.2L52.2 13.92Z" fill="#000"/>
<path d="M59.16 13.92H55.68V17.4H59.16V13.92Z" fill="#000"/>
<path d="M66.12 13.92H62.64V17.4H66.12V13.92Z" fill="#000"/>
<path d="M73.08 13.92H69.6V17.4H73.08V13.92Z" fill="#000"/>
<path d="M76.56 13.92H73.08V17.4H76.56V13.92Z" fill="#000"/>
<path d="M80.04 13.92H76.56V17.4H80.04V13.92Z" fill="#000"/>
<path d="M87 13.92H83.52V17.4H87V13.92Z" fill="#000"/>
<path d="M3.48 17.4H0V20.88H3.48V17.4Z" fill="#000"/>
<path d="M24.36 17.4H20.88V20.88H24.36V17.4Z" fill="#000"/>
<path d="M34.8 17.4H31.32V20.88H34.8V17.4Z" fill="#000"/>
<path d="M45.24 17.4H41.76V20.88H45.24V17.4Z" fill="#000"/>
<path d="M52.2 17.4H48.72V20.88H52.2V17.4Z" fill="#000"/>
<path d="M59.16 17.4H55.68V20.88H59.16V17.4Z" fill="#000"/>
<path d="M66.12 17.4H62.64V20.88H66.12V17.4Z" fill="#000"/>
<path d="M87 17.4H83.52V20.88H87V17.4Z" fill="#000"/>
<path d="M3.48 20.88H0V24.36H3.48V20.88Z" fill="#000"/>
<path d="M6.96 20.88L3.48 20.88V24.36H6.96V20.88Z" fill="#000"/>
<path d="M10.44 20.88H6.96V24.36H10.44V20.88Z" fill="#000"/>
<path d="M13.92 20.88H10.44V24.36H13.92V20.88Z" fill="#000"/>
<path d="M17.4 20.88H13.92V24.36H17.4V20.88Z" fill="#000"/>
<path d="M20.88 20.88L17.4 20.88V24.36H20.88L20.88 20.88Z" fill="#000"/>
<path d="M24.36 20.88H20.88L20.88 24.36H24.36V20.88Z" fill="#000"/>
<path d="M31.32 20.88L27.84 20.88V24.36H31.32V20.88Z" fill="#000"/>
<path d="M38.28 20.88L34.8 20.88V24.36H38.28V20.88Z" fill="#000"/>
<path d="M45.24 20.88H41.76V24.36H45.24V20.88Z" fill="#000"/>
<path d="M52.2 20.88H48.72V24.36H52.2V20.88Z" fill="#000"/>
<path d="M59.16 20.88H55.68V24.36H59.16V20.88Z" fill="#000"/>
<path d="M66.12 20.88H62.64V24.36H66.12V20.88Z" fill="#000"/>
<path d="M69.6 20.88L66.12 20.88V24.36H69.6V20.88Z" fill="#000"/>
<path d="M73.08 20.88H69.6V24.36H73.08V20.88Z" fill="#000"/>
<path d="M76.56 20.88H73.08V24.36H76.56V20.88Z" fill="#000"/>
<path d="M80.04 20.88H76.56V24.36H80.04V20.88Z" fill="#000"/>
<path d="M83.52 20.88L80.04 20.88V24.36H83.52V20.88Z" fill="#000"/>
<path d="M87 20.88H83.52V24.36H87V20.88Z" fill="#000"/>
<path d="M34.8 24.36H31.32V27.84H34.8V24.36Z" fill="#000"/>
<path d="M41.76 24.36H38.28V27.84H41.76V24.36Z" fill="#000"/>
<path d="M48.72 24.36H45.24V27.84H48.72V24.36Z" fill="#000"/>
<path d="M52.2 24.36H48.72V27.84H52.2V24.36Z" fill="#000"/>
<path d="M59.16 24.36H55.68V27.84H59.16V24.36Z" fill="#000"/>
<path d="M6.96 27.84H3.48V31.32H6.96V27.84Z" fill="#000"/>
<path d="M17.4 27.84H13.92V31.32H17.4V27.84Z" fill="#000"/>
<path d="M24.36 27.84H20.88V31.32H24.36V27.84Z" fill="#000"/>
<path d="M38.28 27.84H34.8V31.32H38.28V27.84Z" fill="#000"/>
<path d="M41.76 27.84H38.28V31.32H41.76V27.84Z" fill="#000"/>
<path d="M45.24 27.84H41.76V31.32H45.24V27.84Z" fill="#000"/>
<path d="M48.72 27.84H45.24V31.32H48.72V27.84Z" fill="#000"/>
<path d="M59.16 27.84H55.68V31.32H59.16V27.84Z" fill="#000"/>
<path d="M62.64 27.84H59.16V31.32H62.64V27.84Z" fill="#000"/>
<path d="M73.08 27.84H69.6V31.32H73.08V27.84Z" fill="#000"/>
<path d="M80.04 27.84H76.56V31.32H80.04V27.84Z" fill="#000"/>
<path d="M87 27.84H83.52V31.32H87V27.84Z" fill="#000"/>
<path d="M3.48 31.32H0V34.8H3.48V31.32Z" fill="#000"/>
<path d="M6.96 31.32H3.48V34.8H6.96V31.32Z" fill="#000"/>
<path d="M10.44 31.32H6.96V34.8H10.44V31.32Z" fill="#000"/>
<path d="M17.4 31.32H13.92V34.8H17.4V31.32Z" fill="#000"/>
<path d="M20.88 31.32H17.4V34.8H20.88L20.88 31.32Z" fill="#000"/>
<path d="M38.28 31.32H34.8V34.8H38.28V31.32Z" fill="#000"/>
<path d="M41.76 31.32H38.28V34.8H41.76V31.32Z" fill="#000"/>
<path d="M45.24 31.32H41.76V34.8H45.24V31.32Z" fill="#000"/>
<path d="M55.68 31.32H52.2V34.8H55.68V31.32Z" fill="#000"/>
<path d="M62.64 31.32H59.16V34.8H62.64V31.32Z" fill="#000"/>
<path d="M73.08 31.32H69.6V34.8H73.08V31.32Z" fill="#000"/>
<path d="M76.56 31.32H73.08V34.8H76.56V31.32Z" fill="#000"/>
<path d="M80.04 31.32H76.56V34.8H80.04V31.32Z" fill="#000"/>
<path d="M83.52 31.32H80.04V34.8H83.52V31.32Z" fill="#000"/>
<path d="M87 31.32H83.52V34.8H87V31.32Z" fill="#000"/>
<path d="M17.4 34.8H13.92V38.28H17.4V34.8Z" fill="#000"/>
<path d="M20.88 34.8H17.4V38.28H20.88V34.8Z" fill="#000"/>
<path d="M24.36 34.8H20.88V38.28H24.36V34.8Z" fill="#000"/>
<path d="M27.84 34.8H24.36V38.28H27.84V34.8Z" fill="#000"/>
<path d="M34.8 34.8H31.32V38.28H34.8V34.8Z" fill="#000"/>
<path d="M38.28 34.8H34.8V38.28H38.28V34.8Z" fill="#000"/>
<path d="M41.76 34.8H38.28V38.28H41.76V34.8Z" fill="#000"/>
<path d="M48.72 34.8H45.24V38.28H48.72V34.8Z" fill="#000"/>
<path d="M69.6 34.8H66.12V38.28H69.6V34.8Z" fill="#000"/>
<path d="M80.04 34.8H76.56V38.28H80.04V34.8Z" fill="#000"/>
<path d="M83.52 34.8H80.04V38.28H83.52V34.8Z" fill="#000"/>
<path d="M87 34.8H83.52V38.28H87V34.8Z" fill="#000"/>
<path d="M3.48 38.28H0V41.76H3.48V38.28Z" fill="#000"/>
<path d="M6.96 38.28H3.48V41.76H6.96V38.28Z" fill="#000"/>
<path d="M10.44 38.28H6.96V41.76H10.44V38.28Z" fill="#000"/>
<path d="M13.92 38.28H10.44V41.76H13.92V38.28Z" fill="#000"/>
<path d="M34.8 38.28H31.32V41.76H34.8V38.28Z" fill="#000"/>
<path d="M41.76 38.28H38.28V41.76H41.76V38.28Z" fill="#000"/>
<path d="M48.72 38.28H45.24V41.76H48.72V38.28Z" fill="#000"/>
<path d="M52.2 38.28H48.72V41.76H52.2V38.28Z" fill="#000"/>
<path d="M59.16 38.28H55.68V41.76H59.16V38.28Z" fill="#000"/>
<path d="M62.64 38.28H59.16V41.76H62.64V38.28Z" fill="#000"/>
<path d="M69.6 38.28H66.12V41.76H69.6V38.28Z" fill="#000"/>
<path d="M76.56 38.28H73.08V41.76H76.56V38.28Z" fill="#000"/>
<path d="M80.04 38.28H76.56V41.76H80.04V38.28Z" fill="#000"/>
<path d="M87 38.28H83.52V41.76H87V38.28Z" fill="#000"/>
<path d="M6.96 41.76H3.48V45.24H6.96V41.76Z" fill="#000"/>
<path d="M24.36 41.76H20.88V45.24H24.36V41.76Z" fill="#000"/>
<path d="M34.8 41.76H31.32V45.24H34.8V41.76Z" fill="#000"/>
<path d="M38.28 41.76H34.8V45.24H38.28V41.76Z" fill="#000"/>
<path d="M41.76 41.76H38.28V45.24H41.76V41.76Z" fill="#000"/>
<path d="M45.24 41.76H41.76V45.24H45.24V41.76Z" fill="#000"/>
<path d="M48.72 41.76H45.24V45.24H48.72V41.76Z" fill="#000"/>
<path d="M52.2 41.76H48.72V45.24H52.2V41.76Z" fill="#000"/>
<path d="M55.68 41.76H52.2V45.24H55.68V41.76Z" fill="#000"/>
<path d="M73.08 41.76H69.6V45.24H73.08V41.76Z" fill="#000"/>
<path d="M76.56 41.76H73.08V45.24H76.56V41.76Z" fill="#000"/>
<path d="M80.04 41.76H76.56V45.24H80.04V41.76Z" fill="#000"/>
<path d="M83.52 41.76H80.04V45.24H83.52V41.76Z" fill="#000"/>
<path d="M87 41.76H83.52V45.24H87V41.76Z" fill="#000"/>
<path d="M3.48 45.24H0V48.72H3.48V45.24Z" fill="#000"/>
<path d="M13.92 45.24H10.44V48.72H13.92V45.24Z" fill="#000"/>
<path d="M20.88 45.24H17.4V48.72H20.88L20.88 45.24Z" fill="#000"/>
<path d="M27.84 45.24H24.36V48.72H27.84V45.24Z" fill="#000"/>
<path d="M31.32 45.24H27.84V48.72H31.32V45.24Z" fill="#000"/>
<path d="M38.28 45.24H34.8V48.72H38.28V45.24Z" fill="#000"/>
<path d="M41.76 45.24H38.28V48.72H41.76V45.24Z" fill="#000"/>
<path d="M48.72 45.24H45.24V48.72H48.72V45.24Z" fill="#000"/>
<path d="M52.2 45.24H48.72V48.72H52.2V45.24Z" fill="#000"/>
<path d="M55.68 45.24H52.2V48.72H55.68V45.24Z" fill="#000"/>
<path d="M59.16 45.24H55.68V48.72H59.16V45.24Z" fill="#000"/>
<path d="M66.12 45.24H62.64V48.72H66.12V45.24Z" fill="#000"/>
<path d="M69.6 45.24H66.12V48.72H69.6V45.24Z" fill="#000"/>
<path d="M73.08 45.24H69.6V48.72H73.08V45.24Z" fill="#000"/>
<path d="M76.56 45.24H73.08V48.72H76.56V45.24Z" fill="#000"/>
<path d="M83.52 45.24H80.04V48.72H83.52V45.24Z" fill="#000"/>
<path d="M3.48 48.72H0V52.2H3.48V48.72Z" fill="#000"/>
<path d="M13.92 48.72H10.44V52.2H13.92V48.72Z" fill="#000"/>
<path d="M20.88 48.72H17.4V52.2H20.88V48.72Z" fill="#000"/>
<path d="M24.36 48.72H20.88V52.2H24.36V48.72Z" fill="#000"/>
<path d="M27.84 48.72H24.36V52.2H27.84V48.72Z" fill="#000"/>
<path d="M34.8 48.72H31.32V52.2H34.8V48.72Z" fill="#000"/>
<path d="M38.28 48.72H34.8V52.2H38.28V48.72Z" fill="#000"/>
<path d="M52.2 48.72H48.72V52.2H52.2V48.72Z" fill="#000"/>
<path d="M69.6 48.72H66.12V52.2H69.6V48.72Z" fill="#000"/>
<path d="M76.56 48.72H73.08V52.2H76.56V48.72Z" fill="#000"/>
<path d="M87 48.72H83.52V52.2H87V48.72Z" fill="#000"/>
<path d="M3.48 52.2H0V55.68H3.48V52.2Z" fill="#000"/>
<path d="M6.96 52.2L3.48 52.2V55.68H6.96V52.2Z" fill="#000"/>
<path d="M10.44 52.2L6.96 52.2V55.68H10.44V52.2Z" fill="#000"/>
<path d="M17.4 52.2H13.92V55.68H17.4V52.2Z" fill="#000"/>
<path d="M20.88 52.2H17.4V55.68H20.88V52.2Z" fill="#000"/>
<path d="M31.32 52.2H27.84V55.68H31.32V52.2Z" fill="#000"/>
<path d="M45.24 52.2H41.76V55.68H45.24V52.2Z" fill="#000"/>
<path d="M55.68 52.2L52.2 52.2L52.2 55.68H55.68V52.2Z" fill="#000"/>
<path d="M59.16 52.2H55.68V55.68H59.16V52.2Z" fill="#000"/>
<path d="M62.64 52.2H59.16V55.68H62.64V52.2Z" fill="#000"/>
<path d="M80.04 52.2L76.56 52.2V55.68H80.04V52.2Z" fill="#000"/>
<path d="M83.52 52.2L80.04 52.2V55.68H83.52V52.2Z" fill="#000"/>
<path d="M6.96 55.68H3.48V59.16H6.96V55.68Z" fill="#000"/>
<path d="M20.88 55.68H17.4V59.16H20.88V55.68Z" fill="#000"/>
<path d="M24.36 55.68H20.88V59.16H24.36V55.68Z" fill="#000"/>
<path d="M27.84 55.68H24.36V59.16H27.84V55.68Z" fill="#000"/>
<path d="M31.32 55.68H27.84V59.16H31.32V55.68Z" fill="#000"/>
<path d="M34.8 55.68H31.32V59.16H34.8V55.68Z" fill="#000"/>
<path d="M41.76 55.68H38.28V59.16H41.76V55.68Z" fill="#000"/>
<path d="M45.24 55.68H41.76V59.16H45.24V55.68Z" fill="#000"/>
<path d="M48.72 55.68H45.24V59.16H48.72V55.68Z" fill="#000"/>
<path d="M52.2 55.68H48.72V59.16H52.2L52.2 55.68Z" fill="#000"/>
<path d="M55.68 55.68H52.2L52.2 59.16H55.68V55.68Z" fill="#000"/>
<path d="M59.16 55.68H55.68V59.16H59.16V55.68Z" fill="#000"/>
<path d="M62.64 55.68H59.16V59.16H62.64V55.68Z" fill="#000"/>
<path d="M66.12 55.68H62.64V59.16H66.12V55.68Z" fill="#000"/>
<path d="M69.6 55.68H66.12V59.16H69.6V55.68Z" fill="#000"/>
<path d="M73.08 55.68H69.6V59.16H73.08V55.68Z" fill="#000"/>
<path d="M76.56 55.68H73.08V59.16H76.56V55.68Z" fill="#000"/>
<path d="M83.52 55.68H80.04V59.16H83.52V55.68Z" fill="#000"/>
<path d="M87 55.68H83.52V59.16H87V55.68Z" fill="#000"/>
<path d="M34.8 59.16H31.32V62.64H34.8V59.16Z" fill="#000"/>
<path d="M38.28 59.16H34.8V62.64H38.28V59.16Z" fill="#000"/>
<path d="M41.76 59.16H38.28V62.64H41.76V59.16Z" fill="#000"/>
<path d="M45.24 59.16H41.76V62.64H45.24V59.16Z" fill="#000"/>
<path d="M48.72 59.16H45.24V62.64H48.72V59.16Z" fill="#000"/>
<path d="M52.2 59.16H48.72V62.64H52.2V59.16Z" fill="#000"/>
<path d="M59.16 59.16H55.68V62.64H59.16V59.16Z" fill="#000"/>
<path d="M73.08 59.16H69.6V62.64H73.08V59.16Z" fill="#000"/>
<path d="M87 59.16H83.52V62.64H87V59.16Z" fill="#000"/>
<path d="M3.48 62.64H0V66.12H3.48V62.64Z" fill="#000"/>
<path d="M6.96 62.64H3.48V66.12H6.96V62.64Z" fill="#000"/>
<path d="M10.44 62.64H6.96V66.12H10.44V62.64Z" fill="#000"/>
<path d="M13.92 62.64H10.44V66.12H13.92V62.64Z" fill="#000"/>
<path d="M17.4 62.64H13.92V66.12H17.4V62.64Z" fill="#000"/>
<path d="M20.88 62.64H17.4V66.12H20.88V62.64Z" fill="#000"/>
<path d="M24.36 62.64H20.88V66.12H24.36V62.64Z" fill="#000"/>
<path d="M34.8 62.64H31.32V66.12H34.8V62.64Z" fill="#000"/>
<path d="M41.76 62.64H38.28V66.12H41.76V62.64Z" fill="#000"/>
<path d="M45.24 62.64H41.76V66.12H45.24V62.64Z" fill="#000"/>
<path d="M48.72 62.64H45.24V66.12H48.72V62.64Z" fill="#000"/>
<path d="M59.16 62.64H55.68V66.12H59.16V62.64Z" fill="#000"/>
<path d="M66.12 62.64H62.64V66.12H66.12V62.64Z" fill="#000"/>
<path d="M73.08 62.64H69.6V66.12H73.08V62.64Z" fill="#000"/>
<path d="M87 62.64H83.52V66.12H87V62.64Z" fill="#000"/>
<path d="M3.48 66.12H0V69.6H3.48V66.12Z" fill="#000"/>
<path d="M24.36 66.12H20.88L20.88 69.6H24.36V66.12Z" fill="#000"/>
<path d="M34.8 66.12H31.32V69.6H34.8V66.12Z" fill="#000"/>
<path d="M45.24 66.12H41.76V69.6H45.24V66.12Z" fill="#000"/>
<path d="M52.2 66.12H48.72V69.6H52.2V66.12Z" fill="#000"/>
<path d="M59.16 66.12H55.68V69.6H59.16V66.12Z" fill="#000"/>
<path d="M73.08 66.12H69.6V69.6H73.08V66.12Z" fill="#000"/>
<path d="M76.56 66.12H73.08V69.6H76.56V66.12Z" fill="#000"/>
<path d="M87 66.12H83.52V69.6H87V66.12Z" fill="#000"/>
<path d="M3.48 69.6H0V73.08H3.48V69.6Z" fill="#000"/>
<path d="M10.44 69.6H6.96V73.08H10.44V69.6Z" fill="#000"/>
<path d="M13.92 69.6H10.44V73.08H13.92V69.6Z" fill="#000"/>
<path d="M17.4 69.6H13.92V73.08H17.4V69.6Z" fill="#000"/>
<path d="M24.36 69.6H20.88V73.08H24.36V69.6Z" fill="#000"/>
<path d="M31.32 69.6H27.84V73.08H31.32V69.6Z" fill="#000"/>
<path d="M38.28 69.6H34.8V73.08H38.28V69.6Z" fill="#000"/>
<path d="M55.68 69.6H52.2L52.2 73.08H55.68V69.6Z" fill="#000"/>
<path d="M59.16 69.6H55.68V73.08H59.16V69.6Z" fill="#000"/>
<path d="M62.64 69.6H59.16V73.08H62.64V69.6Z" fill="#000"/>
<path d="M66.12 69.6H62.64V73.08H66.12V69.6Z" fill="#000"/>
<path d="M69.6 69.6H66.12V73.08H69.6V69.6Z" fill="#000"/>
<path d="M73.08 69.6H69.6V73.08H73.08V69.6Z" fill="#000"/>
<path d="M76.56 69.6H73.08V73.08H76.56V69.6Z" fill="#000"/>
<path d="M80.04 69.6H76.56V73.08H80.04V69.6Z" fill="#000"/>
<path d="M83.52 69.6H80.04V73.08H83.52V69.6Z" fill="#000"/>
<path d="M3.48 73.08H0V76.56H3.48V73.08Z" fill="#000"/>
<path d="M10.44 73.08H6.96V76.56H10.44V73.08Z" fill="#000"/>
<path d="M13.92 73.08H10.44V76.56H13.92V73.08Z" fill="#000"/>
<path d="M17.4 73.08H13.92V76.56H17.4V73.08Z" fill="#000"/>
<path d="M24.36 73.08H20.88V76.56H24.36V73.08Z" fill="#000"/>
<path d="M45.24 73.08H41.76V76.56H45.24V73.08Z" fill="#000"/>
<path d="M48.72 73.08H45.24V76.56H48.72V73.08Z" fill="#000"/>
<path d="M59.16 73.08H55.68V76.56H59.16V73.08Z" fill="#000"/>
<path d="M62.64 73.08H59.16V76.56H62.64V73.08Z" fill="#000"/>
<path d="M66.12 73.08H62.64V76.56H66.12V73.08Z" fill="#000"/>
<path d="M69.6 73.08H66.12V76.56H69.6V73.08Z" fill="#000"/>
<path d="M73.08 73.08H69.6V76.56H73.08V73.08Z" fill="#000"/>
<path d="M76.56 73.08H73.08V76.56H76.56V73.08Z" fill="#000"/>
<path d="M83.52 73.08H80.04V76.56H83.52V73.08Z" fill="#000"/>
<path d="M3.48 76.56H0V80.04H3.48V76.56Z" fill="#000"/>
<path d="M10.44 76.56H6.96V80.04H10.44V76.56Z" fill="#000"/>
<path d="M13.92 76.56H10.44V80.04H13.92V76.56Z" fill="#000"/>
<path d="M17.4 76.56H13.92V80.04H17.4V76.56Z" fill="#000"/>
<path d="M24.36 76.56H20.88V80.04H24.36V76.56Z" fill="#000"/>
<path d="M38.28 76.56H34.8V80.04H38.28V76.56Z" fill="#000"/>
<path d="M52.2 76.56H48.72V80.04H52.2V76.56Z" fill="#000"/>
<path d="M76.56 76.56H73.08V80.04H76.56V76.56Z" fill="#000"/>
<path d="M3.48 80.04H0V83.52H3.48V80.04Z" fill="#000"/>
<path d="M24.36 80.04H20.88V83.52H24.36V80.04Z" fill="#000"/>
<path d="M31.32 80.04H27.84V83.52H31.32V80.04Z" fill="#000"/>
<path d="M38.28 80.04H34.8V83.52H38.28V80.04Z" fill="#000"/>
<path d="M41.76 80.04H38.28V83.52H41.76V80.04Z" fill="#000"/>
<path d="M45.24 80.04H41.76V83.52H45.24V80.04Z" fill="#000"/>
<path d="M52.2 80.04H48.72V83.52H52.2V80.04Z" fill="#000"/>
<path d="M55.68 80.04H52.2V83.52H55.68V80.04Z" fill="#000"/>
<path d="M62.64 80.04H59.16V83.52H62.64V80.04Z" fill="#000"/>
<path d="M66.12 80.04H62.64V83.52H66.12V80.04Z" fill="#000"/>
<path d="M73.08 80.04H69.6V83.52H73.08V80.04Z" fill="#000"/>
<path d="M83.52 80.04H80.04V83.52H83.52V80.04Z" fill="#000"/>
<path d="M87 80.04H83.52V83.52H87V80.04Z" fill="#000"/>
<path d="M3.48 83.52H0V87H3.48V83.52Z" fill="#000"/>
<path d="M6.96 83.52H3.48V87H6.96V83.52Z" fill="#000"/>
<path d="M10.44 83.52H6.96V87H10.44V83.52Z" fill="#000"/>
<path d="M13.92 83.52H10.44V87H13.92V83.52Z" fill="#000"/>
<path d="M17.4 83.52H13.92V87H17.4V83.52Z" fill="#000"/>
<path d="M20.88 83.52H17.4V87H20.88L20.88 83.52Z" fill="#000"/>
<path d="M24.36 83.52H20.88L20.88 87H24.36V83.52Z" fill="#000"/>
<path d="M34.8 83.52H31.32V87H34.8V83.52Z" fill="#000"/>
<path d="M38.28 83.52H34.8V87H38.28V83.52Z" fill="#000"/>
<path d="M45.24 83.52H41.76V87H45.24V83.52Z" fill="#000"/>
<path d="M48.72 83.52H45.24V87H48.72V83.52Z" fill="#000"/>
<path d="M52.2 83.52H48.72V87H52.2V83.52Z" fill="#000"/>
<path d="M62.64 83.52H59.16V87H62.64V83.52Z" fill="#000"/>
<path d="M66.12 83.52H62.64V87H66.12V83.52Z" fill="#000"/>
<path d="M69.6 83.52H66.12V87H69.6V83.52Z" fill="#000"/>
<path d="M73.08 83.52H69.6V87H73.08V83.52Z" fill="#000"/>
<path d="M80.04 83.52H76.56V87H80.04V83.52Z" fill="#000"/>
<path d="M87 83.52H83.52V87H87V83.52Z" fill="#000"/>
</svg>
