<svg width="257" height="256" viewBox="0 0 257 256" fill="none" xmlns="http://www.w3.org/2000/svg">
<g clip-path="url(#clip0_3221_675)">
<path d="M256.226 0H0.225586V256H256.226V0Z" fill="white"/>
<path d="M23.0135 16H16.2256V22.7879H23.0135V16Z" fill="black"/>
<path d="M29.8013 16H23.0135V22.7879H29.8013V16Z" fill="black"/>
<path d="M36.5892 16H29.8013V22.7879H36.5892V16Z" fill="black"/>
<path d="M43.3771 16H36.5892V22.7879H43.3771V16Z" fill="black"/>
<path d="M50.165 16H43.3771V22.7879H50.165V16Z" fill="black"/>
<path d="M56.9529 16H50.165V22.7879H56.9529V16Z" fill="black"/>
<path d="M63.7407 16H56.9529V22.7879H63.7407V16Z" fill="black"/>
<path d="M77.3165 16H70.5286V22.7879H77.3165V16Z" fill="black"/>
<path d="M84.1044 16H77.3165V22.7879H84.1044V16Z" fill="black"/>
<path d="M185.923 16H179.135V22.7879H185.923V16Z" fill="black"/>
<path d="M199.498 16H192.71V22.7879H199.498V16Z" fill="black"/>
<path d="M206.286 16H199.498V22.7879H206.286V16Z" fill="black"/>
<path d="M213.074 16H206.286V22.7879H213.074V16Z" fill="black"/>
<path d="M219.862 16H213.074V22.7879H219.862V16Z" fill="black"/>
<path d="M226.65 16H219.862V22.7879H226.65V16Z" fill="black"/>
<path d="M233.438 16H226.65V22.7879H233.438V16Z" fill="black"/>
<path d="M240.226 16H233.438V22.7879H240.226V16Z" fill="black"/>
<path d="M23.0135 22.7879H16.2256V29.5758H23.0135V22.7879Z" fill="black"/>
<path d="M63.7407 22.7879H56.9529V29.5758H63.7407V22.7879Z" fill="black"/>
<path d="M84.1044 22.7879H77.3165V29.5758H84.1044V22.7879Z" fill="black"/>
<path d="M185.923 22.7879H179.135V29.5758H185.923V22.7879Z" fill="black"/>
<path d="M199.498 22.7879H192.71V29.5758H199.498V22.7879Z" fill="black"/>
<path d="M240.226 22.7879H233.438V29.5758H240.226V22.7879Z" fill="black"/>
<path d="M23.0135 29.5758H16.2256V36.3636H23.0135V29.5758Z" fill="black"/>
<path d="M36.5892 29.5758H29.8013V36.3636H36.5892V29.5758Z" fill="black"/>
<path d="M43.3771 29.5758H36.5892V36.3636H43.3771V29.5758Z" fill="black"/>
<path d="M50.165 29.5758H43.3771V36.3636H50.165V29.5758Z" fill="black"/>
<path d="M63.7407 29.5758H56.9529V36.3636H63.7407V29.5758Z" fill="black"/>
<path d="M199.498 29.5758H192.71V36.3636H199.498V29.5758Z" fill="black"/>
<path d="M213.074 29.5758H206.286V36.3636H213.074V29.5758Z" fill="black"/>
<path d="M219.862 29.5758H213.074V36.3636H219.862V29.5758Z" fill="black"/>
<path d="M226.65 29.5758H219.862V36.3636H226.65V29.5758Z" fill="black"/>
<path d="M240.226 29.5758H233.438V36.3636H240.226V29.5758Z" fill="black"/>
<path d="M23.0135 36.3636H16.2256V43.1515H23.0135V36.3636Z" fill="black"/>
<path d="M36.5892 36.3636H29.8013V43.1515H36.5892V36.3636Z" fill="black"/>
<path d="M43.3771 36.3636H36.5892V43.1515H43.3771V36.3636Z" fill="black"/>
<path d="M50.165 36.3636H43.3771V43.1515H50.165V36.3636Z" fill="black"/>
<path d="M63.7407 36.3636H56.9529V43.1515H63.7407V36.3636Z" fill="black"/>
<path d="M84.1044 36.3636H77.3165V43.1515H84.1044V36.3636Z" fill="black"/>
<path d="M199.498 36.3636H192.71V43.1515H199.498V36.3636Z" fill="black"/>
<path d="M213.074 36.3636H206.286V43.1515H213.074V36.3636Z" fill="black"/>
<path d="M219.862 36.3636H213.074V43.1515H219.862V36.3636Z" fill="black"/>
<path d="M226.65 36.3636H219.862V43.1515H226.65V36.3636Z" fill="black"/>
<path d="M240.226 36.3636H233.438V43.1515H240.226V36.3636Z" fill="black"/>
<path d="M23.0135 43.1515H16.2256V49.9394H23.0135V43.1515Z" fill="black"/>
<path d="M36.5892 43.1515H29.8013V49.9394H36.5892V43.1515Z" fill="black"/>
<path d="M43.3771 43.1515H36.5892V49.9394H43.3771V43.1515Z" fill="black"/>
<path d="M50.165 43.1515H43.3771V49.9394H50.165V43.1515Z" fill="black"/>
<path d="M63.7407 43.1515H56.9529V49.9394H63.7407V43.1515Z" fill="black"/>
<path d="M77.3165 43.1515H70.5286V49.9394H77.3165V43.1515Z" fill="black"/>
<path d="M179.135 43.1515H172.347V49.9394H179.135V43.1515Z" fill="black"/>
<path d="M185.923 43.1515H179.135V49.9394H185.923V43.1515Z" fill="black"/>
<path d="M199.498 43.1515H192.71V49.9394H199.498V43.1515Z" fill="black"/>
<path d="M213.074 43.1515H206.286V49.9394H213.074V43.1515Z" fill="black"/>
<path d="M219.862 43.1515H213.074V49.9394H219.862V43.1515Z" fill="black"/>
<path d="M226.65 43.1515H219.862V49.9394H226.65V43.1515Z" fill="black"/>
<path d="M240.226 43.1515H233.438V49.9394H240.226V43.1515Z" fill="black"/>
<path d="M23.0135 49.9394H16.2256V56.7273H23.0135V49.9394Z" fill="black"/>
<path d="M63.7407 49.9394H56.9529V56.7273H63.7407V49.9394Z" fill="black"/>
<path d="M179.135 49.9394H172.347V56.7273H179.135V49.9394Z" fill="black"/>
<path d="M199.498 49.9394H192.71V56.7273H199.498V49.9394Z" fill="black"/>
<path d="M240.226 49.9394H233.438V56.7273H240.226V49.9394Z" fill="black"/>
<path d="M23.0135 56.7273H16.2256V63.5152H23.0135V56.7273Z" fill="black"/>
<path d="M29.8013 56.7273H23.0135V63.5152H29.8013V56.7273Z" fill="black"/>
<path d="M36.5892 56.7273H29.8013V63.5152H36.5892V56.7273Z" fill="black"/>
<path d="M43.3771 56.7273H36.5892V63.5152H43.3771V56.7273Z" fill="black"/>
<path d="M50.165 56.7273H43.3771V63.5152H50.165V56.7273Z" fill="black"/>
<path d="M56.9529 56.7273H50.165V63.5152H56.9529V56.7273Z" fill="black"/>
<path d="M63.7407 56.7273H56.9529V63.5152H63.7407V56.7273Z" fill="black"/>
<path d="M77.3165 56.7273H70.5286V63.5152H77.3165V56.7273Z" fill="black"/>
<path d="M185.923 56.7273H179.135V63.5152H185.923V56.7273Z" fill="black"/>
<path d="M199.498 56.7273H192.71V63.5152H199.498V56.7273Z" fill="black"/>
<path d="M206.286 56.7273H199.498V63.5152H206.286V56.7273Z" fill="black"/>
<path d="M213.074 56.7273H206.286V63.5152H213.074V56.7273Z" fill="black"/>
<path d="M219.862 56.7273H213.074V63.5152H219.862V56.7273Z" fill="black"/>
<path d="M226.65 56.7273H219.862V63.5152H226.65V56.7273Z" fill="black"/>
<path d="M233.438 56.7273H226.65V63.5152H233.438V56.7273Z" fill="black"/>
<path d="M240.226 56.7273H233.438V63.5152H240.226V56.7273Z" fill="black"/>
<path d="M77.3165 63.5152H70.5286V70.303H77.3165V63.5152Z" fill="black"/>
<path d="M179.135 63.5152H172.347V70.303H179.135V63.5152Z" fill="black"/>
<path d="M185.923 63.5152H179.135V70.303H185.923V63.5152Z" fill="black"/>
<path d="M23.0135 70.303H16.2256V77.0909H23.0135V70.303Z" fill="black"/>
<path d="M43.3771 70.303H36.5892V77.0909H43.3771V70.303Z" fill="black"/>
<path d="M50.165 70.303H43.3771V77.0909H50.165V70.303Z" fill="black"/>
<path d="M56.9529 70.303H50.165V77.0909H56.9529V70.303Z" fill="black"/>
<path d="M63.7407 70.303H56.9529V77.0909H63.7407V70.303Z" fill="black"/>
<path d="M70.5286 70.303H63.7407V77.0909H70.5286V70.303Z" fill="black"/>
<path d="M77.3165 70.303H70.5286V77.0909H77.3165V70.303Z" fill="black"/>
<path d="M84.1044 70.303H77.3165V77.0909H84.1044V70.303Z" fill="black"/>
<path d="M185.923 70.303H179.135V77.0909H185.923V70.303Z" fill="black"/>
<path d="M192.71 70.303H185.923V77.0909H192.71V70.303Z" fill="black"/>
<path d="M199.498 70.303H192.71V77.0909H199.498V70.303Z" fill="black"/>
<path d="M213.074 70.303H206.286V77.0909H213.074V70.303Z" fill="black"/>
<path d="M240.226 70.303H233.438V77.0909H240.226V70.303Z" fill="black"/>
<path d="M29.8013 77.0909H23.0135V83.8788H29.8013V77.0909Z" fill="black"/>
<path d="M36.5892 77.0909H29.8013V83.8788H36.5892V77.0909Z" fill="black"/>
<path d="M43.3771 77.0909H36.5892V83.8788H43.3771V77.0909Z" fill="black"/>
<path d="M56.9529 77.0909H50.165V83.8788H56.9529V77.0909Z" fill="black"/>
<path d="M84.1044 77.0909H77.3165V83.8788H84.1044V77.0909Z" fill="black"/>
<path d="M179.135 77.0909H172.347V83.8788H179.135V77.0909Z" fill="black"/>
<path d="M185.923 77.0909H179.135V83.8788H185.923V77.0909Z" fill="black"/>
<path d="M213.074 77.0909H206.286V83.8788H213.074V77.0909Z" fill="black"/>
<path d="M219.862 77.0909H213.074V83.8788H219.862V77.0909Z" fill="black"/>
<path d="M233.438 77.0909H226.65V83.8788H233.438V77.0909Z" fill="black"/>
<path d="M240.226 77.0909H233.438V83.8788H240.226V77.0909Z" fill="black"/>
<path d="M23.0135 83.8788H16.2256V90.6667H23.0135V83.8788Z" fill="black"/>
<path d="M36.5892 83.8788H29.8013V90.6667H36.5892V83.8788Z" fill="black"/>
<path d="M63.7407 83.8788H56.9529V90.6667H63.7407V83.8788Z" fill="black"/>
<path d="M185.923 83.8788H179.135V90.6667H185.923V83.8788Z" fill="black"/>
<path d="M192.71 83.8788H185.923V90.6667H192.71V83.8788Z" fill="black"/>
<path d="M199.498 83.8788H192.71V90.6667H199.498V83.8788Z" fill="black"/>
<path d="M213.074 83.8788H206.286V90.6667H213.074V83.8788Z" fill="black"/>
<path d="M219.862 83.8788H213.074V90.6667H219.862V83.8788Z" fill="black"/>
<path d="M226.65 83.8788H219.862V90.6667H226.65V83.8788Z" fill="black"/>
<path d="M233.438 83.8788H226.65V90.6667H233.438V83.8788Z" fill="black"/>
<path d="M43.3771 90.6667H36.5892V97.4546H43.3771V90.6667Z" fill="black"/>
<path d="M84.1044 90.6667H77.3165V97.4546H84.1044V90.6667Z" fill="black"/>
<path d="M185.923 90.6667H179.135V97.4546H185.923V90.6667Z" fill="black"/>
<path d="M199.498 90.6667H192.71V97.4546H199.498V90.6667Z" fill="black"/>
<path d="M206.286 90.6667H199.498V97.4546H206.286V90.6667Z" fill="black"/>
<path d="M213.074 90.6667H206.286V97.4546H213.074V90.6667Z" fill="black"/>
<path d="M29.8013 97.4546H23.0135V104.242H29.8013V97.4546Z" fill="black"/>
<path d="M36.5892 97.4546H29.8013V104.242H36.5892V97.4546Z" fill="black"/>
<path d="M63.7407 97.4546H56.9529V104.242H63.7407V97.4546Z" fill="black"/>
<path d="M70.5286 97.4546H63.7407V104.242H70.5286V97.4546Z" fill="black"/>
<path d="M77.3165 97.4546H70.5286V104.242H77.3165V97.4546Z" fill="black"/>
<path d="M192.71 97.4546H185.923V104.242H192.71V97.4546Z" fill="black"/>
<path d="M240.226 97.4546H233.438V104.242H240.226V97.4546Z" fill="black"/>
<path d="M36.5892 104.242H29.8013V111.03H36.5892V104.242Z" fill="black"/>
<path d="M50.165 104.242H43.3771V111.03H50.165V104.242Z" fill="black"/>
<path d="M56.9529 104.242H50.165V111.03H56.9529V104.242Z" fill="black"/>
<path d="M84.1044 104.242H77.3165V111.03H84.1044V104.242Z" fill="black"/>
<path d="M179.135 104.242H172.347V111.03H179.135V104.242Z" fill="black"/>
<path d="M185.923 104.242H179.135V111.03H185.923V104.242Z" fill="black"/>
<path d="M206.286 104.242H199.498V111.03H206.286V104.242Z" fill="black"/>
<path d="M226.65 104.242H219.862V111.03H226.65V104.242Z" fill="black"/>
<path d="M23.0135 111.03H16.2256V117.818H23.0135V111.03Z" fill="black"/>
<path d="M43.3771 111.03H36.5892V117.818H43.3771V111.03Z" fill="black"/>
<path d="M50.165 111.03H43.3771V117.818H50.165V111.03Z" fill="black"/>
<path d="M63.7407 111.03H56.9529V117.818H63.7407V111.03Z" fill="black"/>
<path d="M77.3165 111.03H70.5286V117.818H77.3165V111.03Z" fill="black"/>
<path d="M185.923 111.03H179.135V117.818H185.923V111.03Z" fill="black"/>
<path d="M199.498 111.03H192.71V117.818H199.498V111.03Z" fill="black"/>
<path d="M206.286 111.03H199.498V117.818H206.286V111.03Z" fill="black"/>
<path d="M219.862 111.03H213.074V117.818H219.862V111.03Z" fill="black"/>
<path d="M240.226 111.03H233.438V117.818H240.226V111.03Z" fill="black"/>
<path d="M43.3771 138.182H36.5892V144.97H43.3771V138.182Z" fill="black"/>
<path d="M50.165 138.182H43.3771V144.97H50.165V138.182Z" fill="black"/>
<path d="M56.9529 138.182H50.165V144.97H56.9529V138.182Z" fill="black"/>
<path d="M63.7407 138.182H56.9529V144.97H63.7407V138.182Z" fill="black"/>
<path d="M70.5286 138.182H63.7407V144.97H70.5286V138.182Z" fill="black"/>
<path d="M84.1044 138.182H77.3165V144.97H84.1044V138.182Z" fill="black"/>
<path d="M192.71 138.182H185.923V144.97H192.71V138.182Z" fill="black"/>
<path d="M206.286 138.182H199.498V144.97H206.286V138.182Z" fill="black"/>
<path d="M213.074 138.182H206.286V144.97H213.074V138.182Z" fill="black"/>
<path d="M226.65 138.182H219.862V144.97H226.65V138.182Z" fill="black"/>
<path d="M29.8013 144.97H23.0135V151.758H29.8013V144.97Z" fill="black"/>
<path d="M36.5892 144.97L29.8013 144.97V151.758H36.5892V144.97Z" fill="black"/>
<path d="M50.165 144.97H43.3771V151.758H50.165V144.97Z" fill="black"/>
<path d="M56.9529 144.97H50.165V151.758H56.9529V144.97Z" fill="black"/>
<path d="M77.3165 144.97H70.5286V151.758H77.3165V144.97Z" fill="black"/>
<path d="M185.923 144.97L179.135 144.97V151.758H185.923V144.97Z" fill="black"/>
<path d="M213.074 144.97H206.286V151.758H213.074V144.97Z" fill="black"/>
<path d="M219.862 144.97H213.074V151.758H219.862V144.97Z" fill="black"/>
<path d="M226.65 144.97H219.862V151.758H226.65V144.97Z" fill="black"/>
<path d="M233.438 144.97L226.65 144.97V151.758H233.438V144.97Z" fill="black"/>
<path d="M29.8013 151.758H23.0135V158.545H29.8013V151.758Z" fill="black"/>
<path d="M43.3771 151.758H36.5892V158.545H43.3771V151.758Z" fill="black"/>
<path d="M50.165 151.758H43.3771V158.545H50.165V151.758Z" fill="black"/>
<path d="M63.7407 151.758H56.9529V158.545H63.7407V151.758Z" fill="black"/>
<path d="M199.498 151.758H192.71V158.545H199.498V151.758Z" fill="black"/>
<path d="M206.286 151.758H199.498V158.545H206.286V151.758Z" fill="black"/>
<path d="M213.074 151.758H206.286V158.545H213.074V151.758Z" fill="black"/>
<path d="M233.438 151.758H226.65V158.545H233.438V151.758Z" fill="black"/>
<path d="M240.226 151.758H233.438V158.545H240.226V151.758Z" fill="black"/>
<path d="M23.0135 158.545H16.2256V165.333H23.0135V158.545Z" fill="black"/>
<path d="M36.5892 158.545H29.8013V165.333H36.5892V158.545Z" fill="black"/>
<path d="M50.165 158.545H43.3771V165.333H50.165V158.545Z" fill="black"/>
<path d="M70.5286 158.545H63.7407V165.333H70.5286V158.545Z" fill="black"/>
<path d="M77.3165 158.545H70.5286V165.333H77.3165V158.545Z" fill="black"/>
<path d="M179.135 158.545H172.347V165.333H179.135V158.545Z" fill="black"/>
<path d="M185.923 158.545H179.135V165.333H185.923V158.545Z" fill="black"/>
<path d="M199.498 158.545H192.71V165.333H199.498V158.545Z" fill="black"/>
<path d="M206.286 158.545H199.498V165.333H206.286V158.545Z" fill="black"/>
<path d="M233.438 158.545H226.65V165.333H233.438V158.545Z" fill="black"/>
<path d="M240.226 158.545H233.438V165.333H240.226V158.545Z" fill="black"/>
<path d="M23.0135 165.333H16.2256V172.121H23.0135V165.333Z" fill="black"/>
<path d="M36.5892 165.333H29.8013V172.121H36.5892V165.333Z" fill="black"/>
<path d="M43.3771 165.333H36.5892V172.121H43.3771V165.333Z" fill="black"/>
<path d="M50.165 165.333H43.3771V172.121H50.165V165.333Z" fill="black"/>
<path d="M63.7407 165.333H56.9529V172.121H63.7407V165.333Z" fill="black"/>
<path d="M70.5286 165.333H63.7407V172.121H70.5286V165.333Z" fill="black"/>
<path d="M77.3165 165.333H70.5286V172.121H77.3165V165.333Z" fill="black"/>
<path d="M84.1044 165.333H77.3165V172.121H84.1044V165.333Z" fill="black"/>
<path d="M179.135 165.333H172.347V172.121H179.135V165.333Z" fill="black"/>
<path d="M185.923 165.333H179.135V172.121H185.923V165.333Z" fill="black"/>
<path d="M192.71 165.333H185.923V172.121H192.71V165.333Z" fill="black"/>
<path d="M199.498 165.333H192.71V172.121H199.498V165.333Z" fill="black"/>
<path d="M219.862 165.333H213.074V172.121H219.862V165.333Z" fill="black"/>
<path d="M226.65 165.333H219.862V172.121H226.65V165.333Z" fill="black"/>
<path d="M233.438 165.333H226.65V172.121H233.438V165.333Z" fill="black"/>
<path d="M240.226 165.333H233.438V172.121H240.226V165.333Z" fill="black"/>
<path d="M23.0135 172.121H16.2256V178.909H23.0135V172.121Z" fill="black"/>
<path d="M36.5892 172.121H29.8013V178.909H36.5892V172.121Z" fill="black"/>
<path d="M43.3771 172.121H36.5892V178.909H43.3771V172.121Z" fill="black"/>
<path d="M50.165 172.121H43.3771V178.909H50.165V172.121Z" fill="black"/>
<path d="M70.5286 172.121H63.7407V178.909H70.5286V172.121Z" fill="black"/>
<path d="M84.1044 172.121H77.3165V178.909H84.1044V172.121Z" fill="black"/>
<path d="M179.135 172.121H172.347V178.909H179.135V172.121Z" fill="black"/>
<path d="M219.862 172.121H213.074V178.909H219.862V172.121Z" fill="black"/>
<path d="M233.438 172.121H226.65V178.909H233.438V172.121Z" fill="black"/>
<path d="M240.226 172.121H233.438V178.909H240.226V172.121Z" fill="black"/>
<path d="M36.5892 178.909H29.8013V185.697H36.5892V178.909Z" fill="black"/>
<path d="M43.3771 178.909H36.5892V185.697H43.3771V178.909Z" fill="black"/>
<path d="M50.165 178.909H43.3771V185.697H50.165V178.909Z" fill="black"/>
<path d="M63.7407 178.909H56.9529V185.697H63.7407V178.909Z" fill="black"/>
<path d="M70.5286 178.909H63.7407V185.697H70.5286V178.909Z" fill="black"/>
<path d="M77.3165 178.909H70.5286V185.697H77.3165V178.909Z" fill="black"/>
<path d="M179.135 178.909H172.347V185.697H179.135V178.909Z" fill="black"/>
<path d="M185.923 178.909H179.135V185.697H185.923V178.909Z" fill="black"/>
<path d="M192.71 178.909H185.923V185.697H192.71V178.909Z" fill="black"/>
<path d="M199.498 178.909H192.71V185.697H199.498V178.909Z" fill="black"/>
<path d="M206.286 178.909H199.498V185.697H206.286V178.909Z" fill="black"/>
<path d="M213.074 178.909H206.286V185.697H213.074V178.909Z" fill="black"/>
<path d="M226.65 178.909H219.862V185.697H226.65V178.909Z" fill="black"/>
<path d="M240.226 178.909H233.438V185.697H240.226V178.909Z" fill="black"/>
<path d="M77.3165 185.697H70.5286V192.485H77.3165V185.697Z" fill="black"/>
<path d="M84.1044 185.697H77.3165V192.485H84.1044V185.697Z" fill="black"/>
<path d="M179.135 185.697H172.347V192.485H179.135V185.697Z" fill="black"/>
<path d="M185.923 185.697H179.135V192.485H185.923V185.697Z" fill="black"/>
<path d="M213.074 185.697H206.286V192.485H213.074V185.697Z" fill="black"/>
<path d="M233.438 185.697H226.65V192.485H233.438V185.697Z" fill="black"/>
<path d="M23.0135 192.485H16.2256V199.273H23.0135V192.485Z" fill="black"/>
<path d="M29.8013 192.485H23.0135V199.273H29.8013V192.485Z" fill="black"/>
<path d="M36.5892 192.485H29.8013V199.273H36.5892V192.485Z" fill="black"/>
<path d="M43.3771 192.485H36.5892V199.273H43.3771V192.485Z" fill="black"/>
<path d="M50.165 192.485H43.3771V199.273H50.165V192.485Z" fill="black"/>
<path d="M56.9529 192.485H50.165V199.273H56.9529V192.485Z" fill="black"/>
<path d="M63.7407 192.485H56.9529V199.273H63.7407V192.485Z" fill="black"/>
<path d="M77.3165 192.485H70.5286V199.273H77.3165V192.485Z" fill="black"/>
<path d="M179.135 192.485H172.347V199.273H179.135V192.485Z" fill="black"/>
<path d="M185.923 192.485H179.135V199.273H185.923V192.485Z" fill="black"/>
<path d="M199.498 192.485H192.71V199.273H199.498V192.485Z" fill="black"/>
<path d="M213.074 192.485H206.286V199.273H213.074V192.485Z" fill="black"/>
<path d="M219.862 192.485H213.074V199.273H219.862V192.485Z" fill="black"/>
<path d="M226.65 192.485H219.862V199.273H226.65V192.485Z" fill="black"/>
<path d="M240.226 192.485H233.438V199.273H240.226V192.485Z" fill="black"/>
<path d="M23.0135 199.273H16.2256V206.061H23.0135V199.273Z" fill="black"/>
<path d="M63.7407 199.273H56.9529V206.061H63.7407V199.273Z" fill="black"/>
<path d="M77.3165 199.273H70.5286V206.061H77.3165V199.273Z" fill="black"/>
<path d="M179.135 199.273H172.347V206.061H179.135V199.273Z" fill="black"/>
<path d="M185.923 199.273H179.135V206.061H185.923V199.273Z" fill="black"/>
<path d="M213.074 199.273H206.286V206.061H213.074V199.273Z" fill="black"/>
<path d="M219.862 199.273H213.074V206.061H219.862V199.273Z" fill="black"/>
<path d="M226.65 199.273H219.862V206.061H226.65V199.273Z" fill="black"/>
<path d="M23.0135 206.061H16.2256V212.848H23.0135V206.061Z" fill="black"/>
<path d="M36.5892 206.061H29.8013V212.848H36.5892V206.061Z" fill="black"/>
<path d="M43.3771 206.061H36.5892V212.848H43.3771V206.061Z" fill="black"/>
<path d="M50.165 206.061H43.3771V212.848H50.165V206.061Z" fill="black"/>
<path d="M63.7407 206.061H56.9529V212.848H63.7407V206.061Z" fill="black"/>
<path d="M77.3165 206.061H70.5286V212.848H77.3165V206.061Z" fill="black"/>
<path d="M179.135 206.061H172.347V212.848H179.135V206.061Z" fill="black"/>
<path d="M185.923 206.061H179.135V212.848H185.923V206.061Z" fill="black"/>
<path d="M192.71 206.061H185.923V212.848H192.71V206.061Z" fill="black"/>
<path d="M199.498 206.061H192.71V212.848H199.498V206.061Z" fill="black"/>
<path d="M206.286 206.061H199.498V212.848H206.286V206.061Z" fill="black"/>
<path d="M213.074 206.061H206.286V212.848H213.074V206.061Z" fill="black"/>
<path d="M219.862 206.061H213.074V212.848H219.862V206.061Z" fill="black"/>
<path d="M226.65 206.061H219.862V212.848H226.65V206.061Z" fill="black"/>
<path d="M23.0135 212.848H16.2256V219.636H23.0135V212.848Z" fill="black"/>
<path d="M36.5892 212.848H29.8013V219.636H36.5892V212.848Z" fill="black"/>
<path d="M43.3771 212.848H36.5892V219.636H43.3771V212.848Z" fill="black"/>
<path d="M50.165 212.848H43.3771V219.636H50.165V212.848Z" fill="black"/>
<path d="M63.7407 212.848H56.9529V219.636H63.7407V212.848Z" fill="black"/>
<path d="M77.3165 212.848H70.5286V219.636H77.3165V212.848Z" fill="black"/>
<path d="M84.1044 212.848H77.3165V219.636H84.1044V212.848Z" fill="black"/>
<path d="M199.498 212.848H192.71V219.636H199.498V212.848Z" fill="black"/>
<path d="M213.074 212.848H206.286V219.636H213.074V212.848Z" fill="black"/>
<path d="M219.862 212.848H213.074V219.636H219.862V212.848Z" fill="black"/>
<path d="M226.65 212.848H219.862V219.636H226.65V212.848Z" fill="black"/>
<path d="M233.438 212.848H226.65V219.636H233.438V212.848Z" fill="black"/>
<path d="M240.226 212.848H233.438V219.636H240.226V212.848Z" fill="black"/>
<path d="M23.0135 219.636H16.2256V226.424H23.0135V219.636Z" fill="black"/>
<path d="M36.5892 219.636H29.8013V226.424H36.5892V219.636Z" fill="black"/>
<path d="M43.3771 219.636H36.5892V226.424H43.3771V219.636Z" fill="black"/>
<path d="M50.165 219.636H43.3771V226.424H50.165V219.636Z" fill="black"/>
<path d="M63.7407 219.636H56.9529V226.424H63.7407V219.636Z" fill="black"/>
<path d="M84.1044 219.636H77.3165V226.424H84.1044V219.636Z" fill="black"/>
<path d="M185.923 219.636H179.135V226.424H185.923V219.636Z" fill="black"/>
<path d="M192.71 219.636H185.923V226.424H192.71V219.636Z" fill="black"/>
<path d="M219.862 219.636H213.074V226.424H219.862V219.636Z" fill="black"/>
<path d="M23.0135 226.424H16.2256V233.212H23.0135V226.424Z" fill="black"/>
<path d="M63.7407 226.424H56.9529V233.212H63.7407V226.424Z" fill="black"/>
<path d="M84.1044 226.424H77.3165V233.212H84.1044V226.424Z" fill="black"/>
<path d="M192.71 226.424H185.923V233.212H192.71V226.424Z" fill="black"/>
<path d="M213.074 226.424H206.286V233.212H213.074V226.424Z" fill="black"/>
<path d="M219.862 226.424H213.074V233.212H219.862V226.424Z" fill="black"/>
<path d="M23.0135 233.212H16.2256V240H23.0135V233.212Z" fill="black"/>
<path d="M29.8013 233.212H23.0135V240H29.8013V233.212Z" fill="black"/>
<path d="M36.5892 233.212H29.8013V240H36.5892V233.212Z" fill="black"/>
<path d="M43.3771 233.212H36.5892V240H43.3771V233.212Z" fill="black"/>
<path d="M50.165 233.212H43.3771V240H50.165V233.212Z" fill="black"/>
<path d="M56.9529 233.212H50.165V240H56.9529V233.212Z" fill="black"/>
<path d="M63.7407 233.212H56.9529V240H63.7407V233.212Z" fill="black"/>
<path d="M77.3165 233.212H70.5286V240H77.3165V233.212Z" fill="black"/>
<path d="M84.1044 233.212H77.3165V240H84.1044V233.212Z" fill="black"/>
<path d="M179.135 233.212H172.347V240H179.135V233.212Z" fill="black"/>
<path d="M213.074 233.212H206.286V240H213.074V233.212Z" fill="black"/>
<path d="M240.226 233.212H233.438V240H240.226V233.212Z" fill="black"/>
<path d="M145.195 43.1515H138.407V49.9394H145.195V43.1515Z" fill="black"/>
<path d="M90.8923 56.7273L84.1044 56.7273V63.5152L90.8923 63.5152V56.7273Z" fill="black"/>
<path d="M111.256 56.7273H104.468V63.5152H111.256V56.7273Z" fill="black"/>
<path d="M118.044 56.7273H111.256V63.5152H118.044V56.7273Z" fill="black"/>
<path d="M124.832 56.7273H118.044V63.5152H124.832V56.7273Z" fill="black"/>
<path d="M131.62 56.7273H124.832V63.5152H131.62V56.7273Z" fill="black"/>
<path d="M138.407 56.7273H131.62V63.5152H138.407V56.7273Z" fill="black"/>
<path d="M145.195 56.7273H138.407V63.5152H145.195V56.7273Z" fill="black"/>
<path d="M151.983 56.7273H145.195V63.5152H151.983V56.7273Z" fill="black"/>
<path d="M97.6801 63.5152H90.8923V70.303H97.6801V63.5152Z" fill="black"/>
<path d="M104.468 63.5152H97.6801V70.303H104.468V63.5152Z" fill="black"/>
<path d="M111.256 63.5152H104.468V70.303H111.256V63.5152Z" fill="black"/>
<path d="M124.832 63.5152H118.044V70.303H124.832V63.5152Z" fill="black"/>
<path d="M151.983 63.5152H145.195V70.303H151.983V63.5152Z" fill="black"/>
<path d="M90.8923 70.303L84.1044 70.303V77.0909L90.8923 77.0909V70.303Z" fill="black"/>
<path d="M104.468 70.303H97.6801V77.0909H104.468V70.303Z" fill="black"/>
<path d="M131.62 70.303H124.832V77.0909H131.62V70.303Z" fill="black"/>
<path d="M111.256 77.0909H104.468V83.8788H111.256V77.0909Z" fill="black"/>
<path d="M151.983 77.0909H145.195V83.8788H151.983V77.0909Z" fill="black"/>
<path d="M97.6801 83.8788H90.8923V90.6667H97.6801V83.8788Z" fill="black"/>
<path d="M104.468 83.8788H97.6801V90.6667H104.468V83.8788Z" fill="black"/>
<path d="M131.62 83.8788H124.832V90.6667H131.62V83.8788Z" fill="black"/>
<path d="M138.407 83.8788H131.62V90.6667H138.407V83.8788Z" fill="black"/>
<path d="M145.195 83.8788H138.407V90.6667H145.195V83.8788Z" fill="black"/>
<path d="M104.468 90.6667H97.6801V97.4546H104.468V90.6667Z" fill="black"/>
<path d="M118.044 90.6667H111.256V97.4546H118.044V90.6667Z" fill="black"/>
<path d="M124.832 90.6667H118.044V97.4546H124.832V90.6667Z" fill="black"/>
<path d="M151.983 90.6667H145.195V97.4546H151.983V90.6667Z" fill="black"/>
<path d="M90.8923 97.4546L84.1044 97.4546V104.242H90.8923V97.4546Z" fill="black"/>
<path d="M111.256 97.4546H104.468V104.242H111.256V97.4546Z" fill="black"/>
<path d="M118.044 97.4546H111.256V104.242H118.044V97.4546Z" fill="black"/>
<path d="M131.62 97.4546H124.832V104.242H131.62V97.4546Z" fill="black"/>
<path d="M145.195 97.4546H138.407V104.242H145.195V97.4546Z" fill="black"/>
<path d="M145.195 90.6667H138.407V97.4546H145.195V90.6667Z" fill="black"/>
<path d="M90.8923 104.242H84.1044V111.03L90.8923 111.03V104.242Z" fill="black"/>
<path d="M111.256 104.242H104.468V111.03H111.256V104.242Z" fill="black"/>
<path d="M118.044 104.242H111.256V111.03H118.044V104.242Z" fill="black"/>
<path d="M124.832 104.242H118.044V111.03H124.832V104.242Z" fill="black"/>
<path d="M131.62 104.242H124.832V111.03H131.62V104.242Z" fill="black"/>
<path d="M138.407 104.242H131.62V111.03H138.407V104.242Z" fill="black"/>
<path d="M145.195 104.242H138.407V111.03H145.195V104.242Z" fill="black"/>
<path d="M151.983 104.242H145.195V111.03H151.983V104.242Z" fill="black"/>
<path d="M97.6801 111.03H90.8923V117.818H97.6801V111.03Z" fill="black"/>
<path d="M104.468 111.03H97.6801V117.818H104.468V111.03Z" fill="black"/>
<path d="M111.256 111.03H104.468V117.818H111.256V111.03Z" fill="black"/>
<path d="M124.832 111.03H118.044V117.818H124.832V111.03Z" fill="black"/>
<path d="M151.983 111.03H145.195V117.818H151.983V111.03Z" fill="black"/>
<path d="M90.8923 117.818L84.1044 117.818V124.606H90.8923V117.818Z" fill="black"/>
<path d="M104.468 117.818H97.6801V124.606H104.468V117.818Z" fill="black"/>
<path d="M131.62 117.818H124.832V124.606H131.62V117.818Z" fill="black"/>
<path d="M111.256 124.606H104.468V131.394H111.256V124.606Z" fill="black"/>
<path d="M151.983 124.606H145.195V131.394H151.983V124.606Z" fill="black"/>
<path d="M97.6801 131.394H90.8923V138.182H97.6801V131.394Z" fill="black"/>
<path d="M104.468 131.394H97.6801V138.182H104.468V131.394Z" fill="black"/>
<path d="M131.62 131.394H124.832V138.182H131.62V131.394Z" fill="black"/>
<path d="M138.407 131.394H131.62V138.182H138.407V131.394Z" fill="black"/>
<path d="M145.195 131.394H138.407V138.182H145.195V131.394Z" fill="black"/>
<path d="M104.468 138.182H97.6801V144.97H104.468V138.182Z" fill="black"/>
<path d="M118.044 138.182H111.256V144.97H118.044V138.182Z" fill="black"/>
<path d="M124.832 138.182H118.044V144.97H124.832V138.182Z" fill="black"/>
<path d="M151.983 138.182H145.195V144.97H151.983V138.182Z" fill="black"/>
<path d="M90.8923 144.97L84.1044 144.97V151.758H90.8923V144.97Z" fill="black"/>
<path d="M111.256 144.97H104.468V151.758H111.256V144.97Z" fill="black"/>
<path d="M118.044 144.97H111.256V151.758H118.044V144.97Z" fill="black"/>
<path d="M131.62 144.97H124.832V151.758H131.62V144.97Z" fill="black"/>
<path d="M145.195 144.97H138.407V151.758H145.195V144.97Z" fill="black"/>
<path d="M131.62 138.182H124.832V144.97H131.62V138.182Z" fill="black"/>
<path d="M97.6801 151.758H90.8923V158.545H97.6801L97.6801 151.758Z" fill="black"/>
<path d="M104.468 151.758H97.6801L97.6801 158.545H104.468V151.758Z" fill="black"/>
<path d="M111.256 151.758H104.468V158.545H111.256L111.256 151.758Z" fill="black"/>
<path d="M118.044 151.758H111.256L111.256 158.545H118.044V151.758Z" fill="black"/>
<path d="M124.832 151.758H118.044V158.545H124.832L124.832 151.758Z" fill="black"/>
<path d="M131.62 151.758H124.832L124.832 158.545H131.62V151.758Z" fill="black"/>
<path d="M138.407 151.758H131.62V158.545H138.407V151.758Z" fill="black"/>
<path d="M90.8923 158.545H84.1044V165.333L90.8923 165.333V158.545Z" fill="black"/>
<path d="M97.6801 158.545H90.8923V165.333H97.6801V158.545Z" fill="black"/>
<path d="M111.256 158.545H104.468V165.333H111.256V158.545Z" fill="black"/>
<path d="M138.407 158.545H131.62V165.333H138.407V158.545Z" fill="black"/>
<path d="M90.8923 165.333L84.1044 165.333V172.121H90.8923V165.333Z" fill="black"/>
<path d="M118.044 165.333H111.256V172.121H118.044V165.333Z" fill="black"/>
<path d="M97.6801 172.121H90.8923V178.909H97.6801V172.121Z" fill="black"/>
<path d="M138.407 172.121H131.62V178.909H138.407V172.121Z" fill="black"/>
<path d="M90.8923 178.909H84.1044V185.697H90.8923V178.909Z" fill="black"/>
<path d="M118.044 178.909H111.256V185.697H118.044V178.909Z" fill="black"/>
<path d="M124.832 178.909H118.044V185.697H124.832V178.909Z" fill="black"/>
<path d="M131.62 178.909H124.832V185.697H131.62V178.909Z" fill="black"/>
<path d="M90.8923 185.697H84.1044V192.485L90.8923 192.485V185.697Z" fill="black"/>
<path d="M104.468 185.697H97.6801V192.485H104.468V185.697Z" fill="black"/>
<path d="M111.256 185.697H104.468V192.485H111.256V185.697Z" fill="black"/>
<path d="M138.407 185.697H131.62V192.485H138.407V185.697Z" fill="black"/>
<path d="M97.6801 192.485H90.8923V199.273H97.6801V192.485Z" fill="black"/>
<path d="M104.468 192.485H97.6801V199.273H104.468V192.485Z" fill="black"/>
<path d="M118.044 192.485H111.256V199.273H118.044V192.485Z" fill="black"/>
<path d="M131.62 192.485H124.832V199.273H131.62V192.485Z" fill="black"/>
<path d="M131.62 185.697H124.832V192.485H131.62V185.697Z" fill="black"/>
<path d="M97.6801 199.273H90.8923V206.061H97.6801V199.273Z" fill="black"/>
<path d="M104.468 199.273H97.6801V206.061H104.468V199.273Z" fill="black"/>
<path d="M111.256 199.273H104.468V206.061H111.256V199.273Z" fill="black"/>
<path d="M118.044 199.273H111.256V206.061H118.044V199.273Z" fill="black"/>
<path d="M124.832 199.273H118.044V206.061H124.832V199.273Z" fill="black"/>
<path d="M131.62 199.273H124.832V206.061H131.62V199.273Z" fill="black"/>
<path d="M138.407 199.273H131.62V206.061H138.407V199.273Z" fill="black"/>
<path d="M90.8923 206.061H84.1044V212.848H90.8923V206.061Z" fill="black"/>
<path d="M97.6801 206.061H90.8923V212.848H97.6801V206.061Z" fill="black"/>
<path d="M111.256 206.061H104.468V212.848H111.256V206.061Z" fill="black"/>
<path d="M138.407 206.061H131.62V212.848H138.407V206.061Z" fill="black"/>
<path d="M90.8923 212.848H84.1044V219.636L90.8923 219.636V212.848Z" fill="black"/>
<path d="M118.044 212.848H111.256V219.636H118.044V212.848Z" fill="black"/>
<path d="M97.6801 219.636H90.8923V226.424H97.6801V219.636Z" fill="black"/>
<path d="M138.407 219.636H131.62V226.424H138.407V219.636Z" fill="black"/>
<path d="M90.8923 226.424H84.1044V233.212H90.8923V226.424Z" fill="black"/>
<path d="M118.044 226.424H111.256V233.212H118.044V226.424Z" fill="black"/>
<path d="M124.832 226.424H118.044V233.212H124.832V226.424Z" fill="black"/>
<path d="M131.62 226.424H124.832V233.212H131.62V226.424Z" fill="black"/>
<path d="M90.8923 233.212H84.1044V240H90.8923V233.212Z" fill="black"/>
<path d="M104.468 233.212H97.6801V240H104.468V233.212Z" fill="black"/>
<path d="M111.256 233.212H104.468V240H111.256V233.212Z" fill="black"/>
<path d="M138.407 233.212H131.62V240H138.407V233.212Z" fill="black"/>
<path d="M165.559 131.394H158.771V138.182H165.559V131.394Z" fill="black"/>
<path d="M131.62 144.97H124.832V151.758H131.62V144.97Z" fill="black"/>
<path d="M138.407 144.97H131.62V151.758H138.407V144.97Z" fill="black"/>
<path d="M145.195 144.97H138.407V151.758H145.195V144.97Z" fill="black"/>
<path d="M151.983 144.97H145.195V151.758H151.983V144.97Z" fill="black"/>
<path d="M158.771 144.97H151.983V151.758H158.771L158.771 144.97Z" fill="black"/>
<path d="M165.559 144.97H158.771L158.771 151.758H165.559V144.97Z" fill="black"/>
<path d="M172.347 144.97L165.559 144.97V151.758H172.347V144.97Z" fill="black"/>
<path d="M124.832 151.758H118.044V158.545H124.832L124.832 151.758Z" fill="black"/>
<path d="M131.62 151.758H124.832L124.832 158.545H131.62V151.758Z" fill="black"/>
<path d="M145.195 151.758H138.407V158.545H145.195L145.195 151.758Z" fill="black"/>
<path d="M172.347 151.758H165.559V158.545H172.347V151.758Z" fill="black"/>
<path d="M124.832 158.545H118.044V165.333L124.832 165.333V158.545Z" fill="black"/>
<path d="M151.983 158.545H145.195V165.333H151.983V158.545Z" fill="black"/>
<path d="M131.62 165.333L124.832 165.333V172.121H131.62V165.333Z" fill="black"/>
<path d="M172.347 165.333H165.559V172.121H172.347V165.333Z" fill="black"/>
<path d="M124.832 172.121H118.044V178.909H124.832V172.121Z" fill="black"/>
<path d="M151.983 172.121H145.195V178.909H151.983V172.121Z" fill="black"/>
<path d="M158.771 172.121H151.983V178.909H158.771V172.121Z" fill="black"/>
<path d="M165.559 172.121H158.771V178.909H165.559V172.121Z" fill="black"/>
<path d="M124.832 178.909H118.044V185.697H124.832V178.909Z" fill="black"/>
<path d="M138.407 178.909H131.62V185.697H138.407V178.909Z" fill="black"/>
<path d="M145.195 178.909H138.407V185.697H145.195V178.909Z" fill="black"/>
<path d="M172.347 178.909H165.559V185.697H172.347V178.909Z" fill="black"/>
<path d="M131.62 185.697H124.832V192.485H131.62V185.697Z" fill="black"/>
<path d="M138.407 185.697H131.62V192.485H138.407V185.697Z" fill="black"/>
<path d="M151.983 185.697H145.195V192.485H151.983V185.697Z" fill="black"/>
<path d="M165.559 185.697H158.771V192.485H165.559V185.697Z" fill="black"/>
<path d="M165.559 178.909H158.771V185.697H165.559V178.909Z" fill="black"/>
<path d="M131.62 192.485H124.832V199.273H131.62V192.485Z" fill="black"/>
<path d="M138.407 192.485H131.62V199.273H138.407V192.485Z" fill="black"/>
<path d="M145.195 192.485H138.407V199.273L145.195 199.273V192.485Z" fill="black"/>
<path d="M151.983 192.485H145.195V199.273H151.983V192.485Z" fill="black"/>
<path d="M158.771 192.485H151.983V199.273H158.771V192.485Z" fill="black"/>
<path d="M165.559 192.485H158.771V199.273H165.559V192.485Z" fill="black"/>
<path d="M172.347 192.485L165.559 192.485V199.273L172.347 199.273V192.485Z" fill="black"/>
<path d="M124.832 199.273H118.044V206.061H124.832V199.273Z" fill="black"/>
<path d="M131.62 199.273H124.832V206.061H131.62V199.273Z" fill="black"/>
<path d="M145.195 199.273L138.407 199.273V206.061L145.195 206.061V199.273Z" fill="black"/>
<path d="M172.347 199.273L165.559 199.273V206.061L172.347 206.061V199.273Z" fill="black"/>
<path d="M124.832 206.061H118.044V212.848H124.832V206.061Z" fill="black"/>
<path d="M151.983 206.061H145.195V212.848H151.983V206.061Z" fill="black"/>
<path d="M131.62 212.848H124.832V219.636H131.62V212.848Z" fill="black"/>
<path d="M172.347 212.848H165.559V219.636H172.347V212.848Z" fill="black"/>
<path d="M124.832 219.636H118.044V226.424H124.832V219.636Z" fill="black"/>
<path d="M151.983 219.636H145.195V226.424H151.983V219.636Z" fill="black"/>
<path d="M158.771 219.636H151.983V226.424H158.771V219.636Z" fill="black"/>
<path d="M165.559 219.636H158.771V226.424H165.559V219.636Z" fill="black"/>
<path d="M124.832 226.424H118.044V233.212H124.832V226.424Z" fill="black"/>
<path d="M138.407 226.424H131.62V233.212H138.407V226.424Z" fill="black"/>
<path d="M145.195 226.424L138.407 226.424V233.212L145.195 233.212V226.424Z" fill="black"/>
<path d="M172.347 226.424L165.559 226.424V233.212L172.347 233.212V226.424Z" fill="black"/>
<path d="M131.62 233.212H124.832V240H131.62V233.212Z" fill="black"/>
<path d="M138.407 233.212H131.62V240H138.407V233.212Z" fill="black"/>
<path d="M151.983 233.212H145.195V240H151.983V233.212Z" fill="black"/>
<path d="M165.559 233.212H158.771V240H165.559V233.212Z" fill="black"/>
<path d="M135.288 43H128.5V49.7879H135.288V43Z" fill="black"/>
<path d="M165.559 90.6667H158.771V97.4546H165.559V90.6667Z" fill="black"/>
<path d="M172.347 90.6667H165.559V97.4546H172.347V90.6667Z" fill="black"/>
<path d="M179.135 90.6667L172.347 90.6667V97.4546L179.135 97.4546V90.6667Z" fill="black"/>
<path d="M192.71 90.6667H185.923V97.4546H192.71V90.6667Z" fill="black"/>
<path d="M219.862 90.6667H213.074V97.4546L219.862 97.4546L219.862 90.6667Z" fill="black"/>
<path d="M158.771 97.4546H151.983V104.242L158.771 104.242V97.4546Z" fill="black"/>
<path d="M165.559 97.4546H158.771V104.242H165.559V97.4546Z" fill="black"/>
<path d="M192.71 97.4546H185.923V104.242H192.71V97.4546Z" fill="black"/>
<path d="M199.498 97.4546H192.71V104.242H199.498V97.4546Z" fill="black"/>
<path d="M213.074 97.4546H206.286V104.242L213.074 104.242V97.4546Z" fill="black"/>
<path d="M219.862 97.4546L213.074 97.4546V104.242L219.862 104.242L219.862 97.4546Z" fill="black"/>
<path d="M165.559 104.242H158.771V111.03H165.559V104.242Z" fill="black"/>
<path d="M172.347 104.242L165.559 104.242V111.03L172.347 111.03V104.242Z" fill="black"/>
<path d="M179.135 104.242H172.347V111.03H179.135V104.242Z" fill="black"/>
<path d="M192.71 104.242H185.923V111.03H192.71V104.242Z" fill="black"/>
<path d="M199.498 104.242H192.71V111.03H199.498V104.242Z" fill="black"/>
<path d="M206.286 104.242H199.498V111.03H206.286V104.242Z" fill="black"/>
<path d="M213.074 104.242L206.286 104.242V111.03H213.074V104.242Z" fill="black"/>
<path d="M165.559 111.03H158.771V117.818H165.559V111.03Z" fill="black"/>
<path d="M179.135 111.03H172.347V117.818H179.135V111.03Z" fill="black"/>
<path d="M185.923 111.03H179.135V117.818H185.923V111.03Z" fill="black"/>
<path d="M192.71 111.03H185.923V117.818H192.71V111.03Z" fill="black"/>
<path d="M172.347 117.818H165.559V124.606H172.347L172.347 117.818Z" fill="black"/>
<path d="M219.862 117.818H213.074V124.606H219.862L219.862 117.818Z" fill="black"/>
<path d="M158.771 124.606H151.983V131.394L158.771 131.394V124.606Z" fill="black"/>
<path d="M165.559 124.606H158.771V131.394H165.559V124.606Z" fill="black"/>
<path d="M185.923 124.606H179.135V131.394H185.923V124.606Z" fill="black"/>
<path d="M206.286 124.606H199.498V131.394H206.286V124.606Z" fill="black"/>
<path d="M165.559 131.394H158.771V138.182H165.559V131.394Z" fill="black"/>
<path d="M179.135 131.394H172.347L172.347 138.182H179.135V131.394Z" fill="black"/>
<path d="M185.923 131.394H179.135V138.182H185.923V131.394Z" fill="black"/>
<path d="M199.498 131.394H192.71V138.182H199.498L199.498 131.394Z" fill="black"/>
<path d="M219.862 131.394H213.074V138.182H219.862L219.862 131.394Z" fill="black"/>
<path d="M29.8013 111.03H23.0135V117.818H29.8013V111.03Z" fill="black"/>
<path d="M36.5892 111.03H29.8013V117.818H36.5892V111.03Z" fill="black"/>
<path d="M63.7407 111.03H56.9529V117.818H63.7407V111.03Z" fill="black"/>
<path d="M70.5286 111.03H63.7407V117.818H70.5286V111.03Z" fill="black"/>
<path d="M77.3165 111.03H70.5286V117.818H77.3165V111.03Z" fill="black"/>
<path d="M36.5892 117.818H29.8013V124.606H36.5892V117.818Z" fill="black"/>
<path d="M50.165 117.818H43.3771V124.606H50.165V117.818Z" fill="black"/>
<path d="M56.9529 117.818H50.165V124.606H56.9529V117.818Z" fill="black"/>
<path d="M84.1044 117.818H77.3165V124.606L84.1044 124.606V117.818Z" fill="black"/>
<path d="M23.0135 124.606H16.2256V131.394H23.0135V124.606Z" fill="black"/>
<path d="M43.3771 124.606H36.5892V131.394H43.3771V124.606Z" fill="black"/>
<path d="M50.165 124.606H43.3771V131.394H50.165V124.606Z" fill="black"/>
<path d="M63.7407 124.606H56.9529V131.394H63.7407V124.606Z" fill="black"/>
<path d="M77.3165 124.606H70.5286V131.394H77.3165V124.606Z" fill="black"/>
<path d="M90.8923 111.03L84.1044 111.03V117.818L90.8923 117.818V111.03Z" fill="black"/>
<path d="M90.8923 117.818L84.1044 117.818V124.606H90.8923V117.818Z" fill="black"/>
<path d="M90.8923 131.394H84.1044V138.182H90.8923V131.394Z" fill="black"/>
<path d="M135.288 36.2121H128.5L128.5 43H135.288V36.2121Z" fill="black"/>
<path d="M90.8923 16L84.1044 16V22.7879L90.8923 22.7879V16Z" fill="black"/>
<path d="M104.468 16H97.6801V22.7879H104.468V16Z" fill="black"/>
<path d="M131.62 16H124.832V22.7879H131.62V16Z" fill="black"/>
<path d="M104.468 22.7879H97.6801V29.5758H104.468V22.7879Z" fill="black"/>
<path d="M111.256 22.7879H104.468V29.5758H111.256V22.7879Z" fill="black"/>
<path d="M124.832 22.7879H118.044V29.5758H124.832V22.7879Z" fill="black"/>
<path d="M131.62 22.7879H124.832V29.5758H131.62V22.7879Z" fill="black"/>
<path d="M90.8923 29.5758L84.1044 29.5758V36.3636L90.8923 36.3636V29.5758Z" fill="black"/>
<path d="M104.468 29.5758H97.6801V36.3636H104.468V29.5758Z" fill="black"/>
<path d="M111.256 29.5758H104.468V36.3636H111.256V29.5758Z" fill="black"/>
<path d="M118.044 29.5758H111.256V36.3636H118.044V29.5758Z" fill="black"/>
<path d="M124.832 29.5758H118.044V36.3636H124.832V29.5758Z" fill="black"/>
<path d="M90.8923 36.3636L84.1044 36.3636V43.1515H90.8923V36.3636Z" fill="black"/>
<path d="M97.6801 36.3636H90.8923V43.1515H97.6801V36.3636Z" fill="black"/>
<path d="M104.468 36.3636H97.6801V43.1515H104.468V36.3636Z" fill="black"/>
<path d="M131.62 43.1515H124.832V49.9394H131.62V43.1515Z" fill="black"/>
<path d="M97.6801 49.9394H90.8923L90.8923 56.7273H97.6801V49.9394Z" fill="black"/>
<path d="M118.044 49.9394H111.256L111.256 56.7273H118.044L118.044 49.9394Z" fill="black"/>
<path d="M90.8923 56.7273L84.1044 56.7273V63.5152L90.8923 63.5152V56.7273Z" fill="black"/>
<path d="M97.6801 56.7273H90.8923V63.5152H97.6801L97.6801 56.7273Z" fill="black"/>
<path d="M111.256 56.7273H104.468V63.5152H111.256V56.7273Z" fill="black"/>
<path d="M131.62 56.7273H124.832V63.5152H131.62V56.7273Z" fill="black"/>
<path d="M111.256 36.3636H104.468V43.1515L111.256 43.1515L111.256 36.3636Z" fill="black"/>
<path d="M90.8923 43.1515H84.1044V49.9394L90.8923 49.9394V43.1515Z" fill="black"/>
<path d="M104.468 43.1515H97.6801V49.9394L104.468 49.9394V43.1515Z" fill="black"/>
<path d="M111.256 43.1515L104.468 43.1515V49.9394L111.256 49.9394L111.256 43.1515Z" fill="black"/>
<path d="M90.8923 49.9394L84.1044 49.9394V56.7273L90.8923 56.7273L90.8923 49.9394Z" fill="black"/>
<path d="M97.6801 49.9394H90.8923L90.8923 56.7273H97.6801V49.9394Z" fill="black"/>
<path d="M104.468 49.9394L97.6801 49.9394V56.7273H104.468L104.468 49.9394Z" fill="black"/>
<path d="M131.62 56.7273H124.832V63.5152H131.62V56.7273Z" fill="black"/>
<path d="M151.983 56.7273H145.195V63.5152H151.983V56.7273Z" fill="black"/>
<path d="M172.347 56.7273L165.559 56.7273V63.5152L172.347 63.5152V56.7273Z" fill="black"/>
<path d="M131.62 16H124.832V22.7879H131.62V16Z" fill="black"/>
<path d="M145.195 16H138.407V22.7879H145.195V16Z" fill="black"/>
<path d="M172.347 16H165.559V22.7879H172.347V16Z" fill="black"/>
<path d="M145.195 22.7879H138.407V29.5758H145.195V22.7879Z" fill="black"/>
<path d="M151.983 22.7879H145.195V29.5758H151.983V22.7879Z" fill="black"/>
<path d="M165.559 22.7879H158.771V29.5758H165.559V22.7879Z" fill="black"/>
<path d="M172.347 22.7879H165.559V29.5758H172.347V22.7879Z" fill="black"/>
<path d="M131.62 29.5758H124.832V36.3636L131.62 36.3636V29.5758Z" fill="black"/>
<path d="M145.195 29.5758H138.407V36.3636H145.195V29.5758Z" fill="black"/>
<path d="M151.983 29.5758H145.195V36.3636H151.983V29.5758Z" fill="black"/>
<path d="M158.771 29.5758H151.983V36.3636H158.771V29.5758Z" fill="black"/>
<path d="M165.559 29.5758H158.771V36.3636H165.559V29.5758Z" fill="black"/>
<path d="M131.62 36.3636L124.832 36.3636V43.1515H131.62V36.3636Z" fill="black"/>
<path d="M138.407 36.3636H131.62V43.1515H138.407V36.3636Z" fill="black"/>
<path d="M145.195 36.3636H138.407V43.1515H145.195V36.3636Z" fill="black"/>
<path d="M172.347 43.1515L165.559 43.1515V49.9394L172.347 49.9394V43.1515Z" fill="black"/>
<path d="M138.407 49.9394L131.62 49.9394V56.7273H138.407V49.9394Z" fill="black"/>
<path d="M158.771 49.9394H151.983L151.983 56.7273L158.771 56.7273L158.771 49.9394Z" fill="black"/>
<path d="M131.62 56.7273H124.832V63.5152H131.62V56.7273Z" fill="black"/>
<path d="M138.407 56.7273H131.62V63.5152H138.407V56.7273Z" fill="black"/>
<path d="M151.983 56.7273H145.195V63.5152H151.983V56.7273Z" fill="black"/>
<path d="M172.347 56.7273L165.559 56.7273V63.5152L172.347 63.5152V56.7273Z" fill="black"/>
<path d="M151.983 36.3636H145.195V43.1515L151.983 43.1515L151.983 36.3636Z" fill="black"/>
<path d="M131.62 43.1515H124.832V49.9394H131.62V43.1515Z" fill="black"/>
<path d="M145.195 43.1515H138.407V49.9394H145.195V43.1515Z" fill="black"/>
<path d="M151.983 43.1515L145.195 43.1515V49.9394L151.983 49.9394L151.983 43.1515Z" fill="black"/>
<path d="M131.62 49.9394H124.832L124.832 56.7273H131.62V49.9394Z" fill="black"/>
<path d="M138.407 49.9394L131.62 49.9394V56.7273H138.407V49.9394Z" fill="black"/>
<path d="M145.195 49.9394H138.407V56.7273H145.195V49.9394Z" fill="black"/>
</g>
<defs>
<clipPath id="clip0_3221_675">
<rect width="256" height="256" fill="white" transform="translate(0.225586)"/>
</clipPath>
</defs>
</svg>
